<svg width="549" height="408" viewBox="0 0 549 408" fill="none" xmlns="http://www.w3.org/2000/svg">
<path d="M196.861 350.204C191.068 346.192 174.245 341.773 157.131 308.912C157.049 308.753 156.829 308.668 156.67 308.553C156.544 308.279 156.432 307.978 156.306 307.684C155.879 307.49 155.333 307.41 155.065 307.106C149.371 300.555 144.845 297.79 143.247 277.876C142.72 267.938 144.482 258.012 148.396 248.862C157.731 224.904 174.406 210.02 186.172 198.172C187.98 196.35 187.641 194.531 185.35 193.281C185.051 193.106 184.733 192.966 184.402 192.865C169.441 187.985 153.876 185.2 138.151 184.59C123.49 184.007 108.819 185.441 94.5492 188.851C82.1911 191.598 70.2107 195.83 58.8689 201.455C56.8498 202.622 54.9888 204.044 53.3314 205.685C48.0487 210.483 46.1471 216.966 39.4204 241.124C36.116 253.12 34.6208 265.543 34.9843 277.98C34.9453 292.739 36.629 307.452 40.0013 321.82C40.9603 327.188 41.3987 334.86 41.437 335.287C41.859 340.036 42.396 344.754 42.7276 349.5C42.6665 350.605 43.0258 351.692 43.7332 352.543C44.4407 353.395 45.444 353.947 46.5417 354.089C49.7721 354.706 194.521 354.911 199.083 354.577C198.239 352.927 197.554 351.565 196.861 350.204Z" fill="url(#paint0_linear_4438_9768)"/>
<path d="M164.219 186.519C164.175 180.995 164.45 175.474 165.041 169.983C165.195 167.517 165.732 167.098 168.083 167.917C170.601 168.795 173.279 169.12 175.935 168.869C178.59 168.619 181.16 167.8 183.47 166.467C186.51 164.934 189.053 162.572 190.804 159.653C192.556 156.734 193.445 153.379 193.367 149.975C193.452 147.679 193.606 145.4 193.625 143.103C193.647 140.531 195.431 140.484 200.365 136.292C200.557 136.051 200.689 135.768 200.751 135.467C200.813 135.166 200.804 134.854 200.724 134.557C199.56 130.738 198.938 130.225 190.945 116.63C184.805 119.254 179.084 121.707 173.332 124.159C173.563 125.436 173.848 127.069 174.135 128.718L173.489 128.891C172.513 127.521 171.587 126.135 170.579 124.781C169.248 122.964 167.39 121.601 165.258 120.877C163.125 120.154 160.821 120.105 158.66 120.737C152.336 122.545 150.045 129.554 153.339 135.853C155.124 138.622 157.77 140.728 160.869 141.847C163.968 142.966 167.348 143.037 170.491 142.048C170.894 141.89 171.313 141.774 171.727 141.618L172.001 142.035C171.428 142.465 170.927 143.131 170.28 143.312C168.321 143.894 166.322 144.33 164.299 144.616C161.887 144.923 163.46 144.131 154.547 163.59C154.073 164.533 153.303 165.295 152.355 165.758C145.406 168.999 137.14 167.237 126.552 165.914C120.275 183.724 121.36 181.132 119.382 182.809C118.434 179.762 118.094 184.773 122.738 164.092C113.913 161.45 106.135 156.115 100.492 148.833C97.4309 145.407 95.1473 141.359 93.7984 136.967C92.4495 132.575 92.0672 127.943 92.6778 123.389C89.6967 122.441 79.5641 118.232 78.9367 117.969C78.685 117.899 78.4536 117.77 78.2617 117.593C78.0699 117.416 77.923 117.195 77.8332 116.95C77.7435 116.705 77.7135 116.442 77.7458 116.182C77.7781 115.923 77.8717 115.675 78.0188 115.46C82.3315 107.379 86.395 103.091 87.2992 97.4166C88.694 86.8652 92.8059 76.857 99.2319 68.3726C104.416 62.2081 110.967 57.3372 118.363 54.1465C126.678 50.3503 135.834 48.7693 144.941 49.557C153.878 50.2251 162.56 52.8498 170.37 57.2455C184.169 64.5887 188.257 74.2335 194.365 85.1688C195.524 87.2485 195.968 87.0156 207.917 94.4629C210.081 95.811 210.295 96.7398 209.166 99.0661C204.9 107.848 199.541 110.264 193.088 114.827C192.315 115.375 191.926 115.947 192.729 116.923C197.773 123.044 201.733 127.995 203.527 134.807C203.576 135.102 203.554 135.404 203.465 135.69C203.375 135.975 203.22 136.236 203.012 136.451C197.735 140.385 195.803 140.906 195.798 142.616C195.765 153.71 195.798 160.601 187.608 167.229C186.665 167.991 185.63 168.618 184.942 169.092C185.19 169.824 185.335 170.587 185.372 171.358C184.923 174.854 184.451 178.356 183.909 181.842C182.607 190.177 182.369 189.609 181.815 191.158C181.599 191.188 181.385 191.201 181.169 191.229C180.861 190.435 180.676 189.599 180.621 188.749C181.119 182.035 182.528 175.421 184.81 169.087C179.201 171.841 173.623 173.446 167.614 170.821C166.696 176.115 167.096 181.565 164.975 186.541C164.723 186.546 164.471 186.538 164.219 186.519ZM206.87 97.5701C204.19 95.8767 201.615 94.1697 198.976 92.6052C196.967 91.6299 195.175 90.2599 193.706 88.577C192.238 86.894 191.124 84.9326 190.43 82.8097C189.866 81.0618 189.06 79.4017 188.035 77.8777C182.679 69.1182 174.843 62.1455 165.521 57.8428C153.111 52.0121 140.376 50.0338 127.161 54.2808C114.107 58.4757 103.191 65.608 96.5247 78.1462C86.0059 97.929 92.8175 96.7782 86.5566 106.886C84.5181 110.174 82.6138 113.555 80.4903 117.156C91.9983 120.619 104.232 126.809 148.831 124.326C149.169 124.262 149.49 124.128 149.773 123.933C150.056 123.738 150.296 123.485 150.475 123.192C151.462 121.521 152.807 120.089 154.413 119C156.02 117.911 157.848 117.192 159.766 116.895C161.683 116.598 163.643 116.729 165.504 117.28C167.365 117.831 169.08 118.788 170.527 120.082C170.793 120.318 171.105 120.496 171.442 120.607C171.78 120.718 172.137 120.758 172.491 120.726C174.488 120.581 176.455 120.151 178.33 119.449C190.296 113.974 200.686 109.286 206.87 97.5701ZM112.014 149.959C111.228 148.94 110.379 147.97 109.474 147.054C101.221 139.725 101.188 133.941 99.0346 126.935C98.8455 126.318 98.0454 125.888 97.544 125.384C96.585 126.518 95.5904 126.97 96.2096 129.129C98.588 137.41 99.6155 144.095 106.707 148.907C107.446 149.487 108.312 149.884 109.235 150.067C110.157 150.25 111.109 150.213 112.014 149.959Z" fill="#191919"/>
<path d="M417.239 119.455C412.181 114.597 412.869 114.797 410.663 114.391C410.316 114.348 409.985 114.219 409.702 114.014C409.418 113.809 409.191 113.537 409.041 113.221C408.89 112.905 408.822 112.557 408.842 112.208C408.863 111.859 408.97 111.52 409.156 111.224C409.569 110.361 410.206 109.624 411 109.091C411.795 108.559 412.719 108.25 413.674 108.196C415.135 107.965 416.631 108.104 418.024 108.6C419.418 109.097 420.664 109.935 421.65 111.038C422.149 111.539 422.768 111.955 423.629 112.643L428.218 107.925C423.053 99.4556 415.888 101.39 412.052 100.511C410.634 99.9874 409.401 99.0593 408.507 97.8415C407.612 96.6237 407.094 95.1698 407.019 93.6605C406.898 92.1974 406.402 91.9398 405.101 92.7125C404.613 93.0077 404.148 93.3383 403.709 93.7016C403.079 94.1913 402.292 94.4352 401.496 94.3878C400.699 94.3404 399.947 94.005 399.38 93.4441C394.875 89.1286 390.409 84.7884 385.869 80.5359C384.164 78.9412 384.318 77.1602 386.4 76.1053C387.847 75.371 389.266 74.5956 390.702 73.8394C391.634 73.3489 391.735 72.9187 391.031 71.946C376.388 51.6865 376.388 51.5878 375.572 48.93C376.379 49.3138 377.127 49.8111 377.794 50.4069C383.337 56.8041 388.55 63.4801 393.412 70.4089C394.015 71.2309 394.631 71.9268 395.735 70.8829C396.337 70.4562 396.999 70.1219 397.7 69.891C380.38 44.9187 382.767 48.3354 382.427 46.127C384.277 47.1929 381.548 43.8281 398.289 66.5647C399.985 68.869 399.659 68.5484 403.136 66.8085C402.263 60.7988 401.398 54.8137 400.541 48.8533L401.259 48.7245C403.753 54.0593 403.539 60.0544 405.016 65.8468C406.723 64.8138 408.419 63.8575 410.022 62.7506C410.975 62.0902 409.983 58.3967 409.474 50.4589C409.326 48.2067 409.444 45.9407 409.444 43.6747C409.63 43.6309 409.816 43.5733 409.992 43.5322C410.294 44.324 410.529 45.1398 410.696 45.9708C411.427 52.0838 412.159 59.901 412.545 61.4436C415.743 59.6379 417.831 61.6464 418.656 65.318C422.3 81.5525 424.434 81.6758 421.05 83.6184C419.496 84.2952 418.043 85.1831 416.732 86.257C416.476 86.7755 416.332 87.3423 416.31 87.9202C416.288 88.4981 416.388 89.0742 416.603 89.6108C417.932 93.6194 422.453 93.6194 430.744 97.1266C432.653 97.8911 434.386 99.0342 435.84 100.487C437.295 101.94 438.44 103.672 439.206 105.579C439.973 107.487 440.345 109.529 440.301 111.585C440.257 113.64 439.796 115.664 438.948 117.537C438.836 117.781 438.734 118.038 438.589 118.359C444.14 123.537 514.887 189.47 518.49 192.966C518.719 193.319 518.852 193.725 518.877 194.145C518.902 194.565 518.818 194.984 518.633 195.361C516.052 198.159 513.254 200.77 510.629 203.537C488.12 227.271 491.748 223.937 486.517 229.611C486.345 229.819 486.127 229.983 485.88 230.091C485.633 230.199 485.365 230.248 485.096 230.234C484.826 230.22 484.564 230.143 484.33 230.01C484.096 229.876 483.896 229.69 483.747 229.466C473.398 218.843 437.167 183.935 395.916 143.43C393.839 141.389 393.938 141.463 396.105 139.514C399.865 136.141 411.882 123.694 417.239 119.455ZM398.059 141.715L485.632 226.446C490.824 220.479 510.084 198.638 514.676 193.473C488.646 168.978 462.846 144.701 437 120.359C434.449 122.894 431.131 124.512 427.563 124.962C424.309 125.116 421.126 123.97 418.716 121.778C406.186 133.623 408.227 131.196 398.064 141.715H398.059ZM413.869 87.8243C408.874 90.4821 408.23 90.9589 409.926 95.3319C410.155 96.2592 410.71 97.0734 411.489 97.6265C412.268 98.1796 413.219 98.4349 414.17 98.3459C415.203 98.3325 416.235 98.404 417.255 98.5596C419.643 98.7036 421.967 99.3845 424.054 100.552C426.141 101.719 427.939 103.342 429.311 105.3C430.089 106.199 430.588 107.305 430.747 108.483C430.905 109.661 430.716 110.86 430.203 111.932C429.689 113.004 428.874 113.903 427.857 114.519C426.84 115.134 425.666 115.439 424.478 115.397C423.53 115.487 423.968 115.361 420.094 119.269C421.644 120.506 423.516 121.273 425.489 121.479C427.461 121.685 429.452 121.321 431.224 120.43C432.549 119.74 433.725 118.796 434.684 117.65C435.643 116.505 436.366 115.182 436.812 113.756C437.259 112.33 437.419 110.831 437.284 109.343C437.149 107.855 436.722 106.409 436.027 105.086C432.558 99.8803 429.648 99.3542 421.615 96.5923C417.42 95.1456 413.984 93.0303 413.869 87.8243ZM412.866 111.605C414.83 113.468 416.809 115.353 418.875 117.32C419.62 116.498 420.595 115.402 421.686 114.235C418.817 112.909 416.537 109.517 412.866 111.597V111.605Z" fill="#191919"/>
<path d="M376.279 253.509C381.898 252.912 493.222 252.057 499.003 252.032C506.16 252.002 513.331 252.353 520.474 252.764C525.866 253.073 529.941 250.325 530.513 245.434C531.633 238.751 531.969 231.96 531.516 225.199C531.533 189.831 531.618 109.371 531.618 104.382C502.519 104.05 473.332 104.236 444.173 102.573C473.316 101.127 502.461 100.866 531.853 100.91C532.001 94.384 531.733 87.855 531.05 81.363C530.922 79.8287 530.318 78.3726 529.323 77.1978C528.328 76.023 526.991 75.1879 525.499 74.8089C522.796 74.0822 520.021 73.6586 517.224 73.5457C417.291 72.4799 424.368 72.7813 424.273 71.825C424.783 71.6674 425.307 71.5573 425.837 71.4962C432.249 71.3208 438.674 71.0962 445.083 71.0496C527.431 70.4715 522.866 70.3646 526.129 71.3948C534.382 74.0006 533.527 79.7737 533.601 87.443C533.766 104.582 533.99 220.996 533.733 233.945C533.679 238.451 533.396 242.952 532.886 247.429C532.444 249.349 531.683 251.181 530.634 252.849C530.45 253.21 529.689 253.366 529.171 253.465C524.677 254.325 524.417 254.975 506.667 255.073C483.404 255.202 376.731 254.284 376.227 254.284C376.235 254.04 376.265 253.766 376.279 253.509Z" fill="#191919"/>
<path d="M196.861 350.204C196.524 349.903 196.157 349.639 195.765 349.414C188.425 346.041 181.735 341.404 176.001 335.714C168.202 327.946 161.806 318.888 157.095 308.939C157.021 308.783 156.794 308.695 156.638 308.58C156.509 308.279 149.415 289.022 150.368 270.946C150.451 270.378 150.581 269.817 150.758 269.269C150.944 269.269 151.144 269.253 151.33 269.253C152.33 274.834 152.388 286.216 157.038 300.262C161.605 313.592 170.108 325.224 181.424 333.621C186.758 337.767 192.46 341.408 197.929 345.403C198.194 345.542 198.469 345.662 198.751 345.762C201.708 327.255 208.726 309.632 219.301 294.16C229.544 278.399 241.358 264.02 257.22 252.898C242.037 226.338 217.736 206.185 188.824 196.18L189.082 195.648C190.77 195.775 192.442 196.063 194.074 196.509C207.848 201.649 210.095 202.038 225.324 212.675C228.955 215.29 232.44 218.101 235.766 221.095C237.732 222.938 239.58 224.901 241.301 226.975C246.845 232.848 251.856 239.202 256.275 245.963C257.612 247.925 258.725 250.037 259.988 252.043C261.319 254.153 260.993 255.633 258.656 257.12C256.105 258.745 256.661 258.929 257.834 260.822C272.356 284.178 275.047 286.888 279.233 293.047C279.709 294.041 280.037 295.099 280.209 296.187C279.979 296.316 279.735 296.461 279.505 296.59C278.763 296.036 278.076 295.411 277.455 294.724C261.73 273.76 264.147 277.12 253.891 262.34C253.373 261.597 252.902 261.323 252.127 262.066C245.764 268.171 235.026 276.103 218.178 303.843C215.306 308.575 212.917 313.597 210.418 318.546C207.142 325.085 204.783 332.044 203.407 339.227C201.609 348.392 203.434 351.881 197.669 350.297C197.436 350.242 197.148 350.247 196.861 350.204Z" fill="#191919"/>
<path d="M276.214 280.386C288.229 279.068 295.394 279.043 322.813 268.842C324.88 267.912 326.861 266.803 328.734 265.527C333.931 262.691 339.605 260.834 345.473 260.047C350.608 219.221 359.318 148.488 359.641 147.734C359.78 147.551 359.961 147.403 360.168 147.304C360.375 147.204 360.603 147.155 360.833 147.162C361.077 147.162 361.507 147.806 361.477 148.137C361.203 151.307 349.934 258.913 349.89 259.929C354.547 258.761 359.042 257.022 363.272 254.751C363.462 254.637 363.626 254.485 363.754 254.305C363.882 254.125 363.972 253.92 364.017 253.704C365.804 241.075 375.251 160.788 376.465 149.94C376.525 149.411 377.44 148.981 377.958 148.493C378.389 148.965 379.194 149.469 379.178 149.926C379.06 152.781 378.72 155.634 378.416 158.475C366.908 266.311 368.675 245.037 368.949 251.956C369.005 252.883 368.788 253.807 368.324 254.613C367.86 255.418 367.171 256.07 366.341 256.488C363.154 258.206 359.872 259.757 356.573 261.25C348.503 264.897 341.957 263.135 333.943 267.171C327.427 270.459 333.727 270.341 313.231 277.153C303.123 280.844 292.408 282.597 281.65 282.318C280.217 282.185 278.798 281.936 277.406 281.572C276.937 281.379 276.501 281.113 276.115 280.783C276.159 280.644 276.192 280.515 276.214 280.386Z" fill="#191919"/>
<path d="M206.256 349.916C207.33 350.146 208.147 350.091 208.621 350.464C213.065 353.401 218.089 355.347 223.351 356.171C236.33 359.331 254.187 360.928 266.577 355.958C275.365 352.431 274.682 354.341 298.301 341.915C328.107 326.237 349.58 299.141 349.862 298.848C351.874 296.741 354.134 294.872 356.315 292.91C367.456 282.89 367.187 279.997 372.434 270.65C372.678 270.22 373.396 270.048 373.898 269.763C374.057 270.264 374.446 270.823 374.344 271.267C373.204 276.134 371.065 280.711 368.061 284.707C366.064 287.748 363.763 290.578 361.192 293.154C349.958 303.33 338.121 328.462 291.188 352.3C289.432 353.19 275.707 359.043 271.868 360.344C268.082 361.57 264.227 362.577 260.325 363.358C252.296 364.745 244.095 364.817 236.043 363.572C229.536 362.722 223.179 360.969 217.156 358.366C212.8 356.631 209.022 353.702 206.256 349.916Z" fill="#191919"/>
<path d="M324.991 200.888C324.97 193.265 324.991 194.216 324.835 193.659C322.624 187.834 318.629 189.881 309.373 189.358C307.343 189.243 286.396 187.33 276.43 186.719C266.879 186.133 233.533 184.754 228.456 184.667C223.337 184.582 221.288 186.36 220.54 191.517C218.915 202.707 220.08 205.954 216.797 205.014C216.797 195.734 216.482 196.506 217.814 189.423C218.109 187.455 219.092 185.654 220.589 184.341C222.086 183.028 223.999 182.289 225.99 182.253C253.016 181.676 280.053 182.816 306.935 185.667C311.839 186.141 316.703 186.974 321.58 187.703C323.312 187.809 324.936 188.581 326.111 189.858C327.286 191.135 327.921 192.818 327.882 194.553C328.367 203.696 327.167 209.897 325.542 225.443C324.087 239.396 322.621 256.131 322.317 258C322.086 259.63 321.233 261.108 319.935 262.121C318.638 263.135 316.998 263.606 315.36 263.436C278.702 262.812 285.064 263.014 270.586 261.198C261.084 260.006 263.689 260.551 260.259 259.104C260.632 257.233 256.65 259.143 315.103 259.926C316.198 259.953 317.272 259.616 318.154 258.966C319.037 258.317 319.679 257.393 319.98 256.34C321.131 250.28 321.835 244.144 322.087 237.982C322.416 234.233 324.997 202.181 324.991 200.888Z" fill="#191919"/>
<path d="M278.998 73.7622C277.069 73.6548 275.134 73.804 273.244 74.2061C271.822 74.5606 270.546 75.3506 269.595 76.4658C268.643 77.581 268.065 78.9656 267.939 80.4259C264.04 105.217 269.493 127.759 266.295 156.094C266.172 156.849 266.004 157.596 265.794 158.332H265.246C265.016 156.414 264.643 154.496 264.585 152.578C262.495 83.3221 262.514 76.1679 268.832 72.9786C270.942 71.9504 273.254 71.4065 275.6 71.3866C293.427 71.2661 362.672 71.3483 379.465 71.4606C381.25 71.5751 383.026 71.7901 384.786 72.1045C384.934 73.8143 390.335 73.5923 278.998 73.7622Z" fill="#191919"/>
<path d="M200.568 139.275C208.585 143.679 216.326 150.509 242.748 156.831C265.762 162.598 289.745 163.365 313.081 159.08C328.408 155.989 339.727 152.978 354.63 149.904C354.715 150.09 354.786 150.276 354.874 150.452C353.868 151.244 352.782 151.927 351.632 152.49C344.484 155.449 337.075 157.734 329.501 159.316C312.659 163.281 319.911 161.576 312.393 162.702C305.753 163.982 299.017 164.702 292.257 164.853C262.196 164.796 255.815 163.648 239.462 159.288C217.948 153.554 210.268 147.934 203.45 143.183C202.241 142.148 201.139 140.994 200.162 139.738C200.309 139.595 200.445 139.44 200.568 139.275Z" fill="#191919"/>
<path d="M37.1352 331.186C36.4816 330.878 35.8731 330.483 35.3268 330.01C32.6197 326.936 29.7783 323.955 27.3808 320.645C2.60302 286.414 13.6808 238.664 44.4209 210.927C45.3909 210.053 44.8867 210.19 47.0458 210.083C46.4074 212.872 48.7063 208.324 35.0117 227.107C18.3745 249.923 11.3683 277.158 22.194 303.849C26.1378 313.374 31.311 322.342 37.5819 330.525C37.4503 330.742 37.2914 330.972 37.1352 331.186Z" fill="#191919"/>
<path d="M406.038 102.946C402.827 103.132 399.599 103.521 396.388 103.478C379.378 103.242 362.368 102.719 345.358 102.617C328.619 102.516 328.37 103.341 275.269 103.277C273.495 103.216 271.729 103.005 269.991 102.645C269.412 102.443 268.869 102.148 268.386 101.77C268.866 101.318 269.47 101.019 270.12 100.91C277.332 100.765 284.549 100.836 291.766 100.636C348.794 99.0606 325.26 98.2277 393.396 100.88C396.708 101.009 400.007 101.447 403.32 101.798C404.251 101.897 405.156 102.14 406.06 102.327C406.068 102.546 406.068 102.746 406.038 102.946Z" fill="#191919"/>
<path d="M299.794 208.26C299.906 208.267 300.016 208.296 300.117 208.345C300.218 208.394 300.309 208.462 300.383 208.546C300.458 208.63 300.515 208.728 300.552 208.834C300.588 208.94 300.604 209.053 300.597 209.165C300.389 211.844 300.323 213.666 299.964 216.376C298.367 228.528 299.992 230.855 297.454 230.663C282.499 229.531 284.774 229.841 282.341 229.643C279.403 229.4 274.255 228.747 270.106 228.547C267.797 228.432 265.487 228.454 263.193 228.26C257.593 227.788 251.639 226.975 245.479 226.616C243.4 226.498 243.013 226.068 243.287 223.961C245.131 209.165 245.205 208.789 245.222 207.247C245.268 204.811 245.266 204.753 247.775 204.909C256.193 205.441 294.687 207.778 297.986 207.965C298.545 207.973 299.063 208.197 299.794 208.26ZM297.671 217.352C297.772 215.302 297.854 213.242 297.972 211.05C297.978 210.939 297.962 210.827 297.925 210.722C297.888 210.617 297.83 210.521 297.756 210.438C297.681 210.355 297.591 210.288 297.49 210.24C297.39 210.192 297.281 210.165 297.169 210.159C247.902 208.074 247.562 206.49 247.488 208.323C247.304 212.902 246.844 222.881 246.844 222.881C246.845 223.093 246.925 223.297 247.067 223.453C247.21 223.61 247.406 223.707 247.617 223.728C263.739 225.191 279.792 226.287 296.035 227.684C296.147 227.693 296.26 227.68 296.367 227.645C296.474 227.61 296.573 227.554 296.659 227.481C296.744 227.408 296.814 227.318 296.864 227.218C296.915 227.117 296.945 227.007 296.953 226.895L297.671 217.352Z" fill="#191919"/>
<path d="M319.873 201.791C296.309 201.791 299.564 201.263 291.032 200.315C289.366 200.131 287.689 200.183 286.026 200.041C282.19 199.715 277.017 199.046 272.43 198.906C218.951 197.276 222.976 197.936 222.748 196.799C223.718 196.416 224.73 196.151 225.762 196.01C260.352 195.52 262.687 195.591 272.934 196.311C295.038 197.862 306.422 199.117 318.572 200.871C319.047 200.989 319.507 201.163 319.942 201.389C319.903 201.52 319.88 201.655 319.873 201.791Z" fill="#191919"/>
<path d="M249.888 232.326C256.039 230.534 287.793 231.981 292.632 234.406C291.876 234.618 291.103 234.767 290.322 234.85C286.212 234.85 282.089 234.937 277.992 234.735C274.836 234.578 271.69 233.893 268.539 233.704C259.111 233.134 254.535 233.334 249.822 232.786C249.841 232.627 249.869 232.496 249.888 232.326Z" fill="#191919"/>
<path d="M286.47 239.842C283.414 240.799 280.172 241.006 277.019 240.445C276.688 240.412 276.359 240.253 276.028 240.228C252.91 238.551 260.588 239.905 254.746 238.179C257.834 236.757 285.037 238.307 286.47 239.842Z" fill="#191919"/>
<path d="M326.126 88.5473C326.156 89.71 325.724 90.8372 324.923 91.6809C324.123 92.5247 323.02 93.0158 321.857 93.0464C320.694 93.0769 319.567 92.6443 318.723 91.8437C317.879 91.0431 317.388 89.9401 317.358 88.7774C317.373 87.5821 317.851 86.4391 318.691 85.5885C319.531 84.7379 320.667 84.2457 321.862 84.2153C322.966 84.329 323.995 84.8238 324.773 85.6144C325.551 86.405 326.03 87.4421 326.126 88.5473Z" fill="#191919"/>
<path d="M288.98 92.5915C287.888 92.5102 286.867 92.0238 286.116 91.2278C285.365 90.4318 284.939 89.3838 284.922 88.2897C285.017 87.1941 285.509 86.1711 286.307 85.414C287.105 84.6568 288.152 84.2177 289.251 84.1797C290.366 84.2157 291.422 84.6933 292.185 85.5075C292.948 86.3217 293.357 87.4057 293.321 88.5212C293.285 89.6367 292.808 90.6922 291.993 91.4555C291.179 92.2188 290.095 92.6275 288.98 92.5915Z" fill="#191919"/>
<path d="M309.647 88.3472C309.501 89.404 309.021 90.3864 308.278 91.152C307.535 91.9177 306.567 92.4267 305.515 92.6052C304.345 92.5126 303.251 91.9867 302.447 91.1304C301.643 90.2741 301.188 89.1488 301.17 87.9746C301.306 86.9161 301.835 85.9474 302.652 85.2603C303.469 84.5733 304.514 84.218 305.58 84.2649C306.646 84.3117 307.656 84.7573 308.409 85.5134C309.162 86.2694 309.604 87.2808 309.647 88.3472Z" fill="#191919"/>
<path d="M378.876 147.594C376.701 145.54 373.936 144.22 370.971 143.821C368.54 143.227 365.986 143.382 363.645 144.265C363.286 144.441 362.823 144.58 362.655 144.868C362.305 145.512 361.907 146.076 361.335 145.328C361.168 145.06 361.069 144.755 361.046 144.44C361.024 144.125 361.079 143.809 361.206 143.52C361.926 142.626 362.84 141.906 363.878 141.417C364.917 140.928 366.053 140.681 367.201 140.695C369.342 140.457 371.508 140.721 373.529 141.465C375.551 142.21 377.371 143.414 378.846 144.983C379.032 145.145 379.181 145.345 379.285 145.569C379.388 145.792 379.443 146.036 379.446 146.282C379.448 146.529 379.399 146.773 379.301 146.999C379.203 147.225 379.058 147.428 378.876 147.594Z" fill="#191919"/>
<path d="M373.281 262.688C372.574 268.268 369.724 273.355 365.335 276.873C364.595 277.476 365.154 277.256 362.855 277.804C362.852 277.289 362.945 276.778 363.129 276.297C366.264 271.546 368.848 269.817 370.253 263.145C370.322 262.822 370.423 262.718 372.188 260.351C372.55 261.11 372.914 261.899 373.281 262.688Z" fill="#191919"/>
<path d="M359.787 266.976C360.6 266.072 361.482 265.233 362.425 264.466C365.052 262.366 367.182 259.712 368.664 256.693C369.06 256.239 369.521 255.847 370.034 255.531C370.229 256.128 370.326 256.753 370.322 257.381C369.984 259.28 369.261 261.09 368.2 262.7C367.138 264.31 365.758 265.687 364.146 266.746C363.506 267.17 362.764 267.415 361.998 267.455C361.231 267.496 360.468 267.33 359.787 266.976Z" fill="#191919"/>
<path d="M187.438 127.357C186.342 127.455 185.454 126.036 185.632 124.518C185.685 123.66 185.863 122.814 186.161 122.008C186.399 121.46 187.093 120.66 187.468 120.718C188.129 120.931 188.68 121.394 189.002 122.008C189.242 122.645 189.368 123.32 189.375 124C189.019 123.992 189.915 127.135 187.438 127.357Z" fill="#191919"/>
<path d="M236.947 193.503C235.47 193.618 234.596 193.114 234.667 191.522C234.665 191.217 234.723 190.915 234.837 190.633C234.952 190.351 235.122 190.095 235.336 189.879C235.551 189.663 235.806 189.492 236.087 189.375C236.368 189.258 236.67 189.198 236.974 189.198C238.166 189.349 239.26 189.716 239.166 191.366C239.059 192.873 238.509 193.703 236.947 193.503Z" fill="#191919"/>
<path d="M246.915 190.404C246.948 191.054 246.733 191.692 246.311 192.188C245.89 192.684 245.296 193.001 244.649 193.073C243.128 193.221 242.668 192.141 242.441 191.092C242.183 189.917 243.457 188.87 244.934 188.755C246.411 188.64 246.627 189.686 246.915 190.404Z" fill="#191919"/>
<path d="M228.557 192.829C227.324 193.073 226.768 192.155 226.639 191.051C226.516 190.018 228.231 188.497 229.352 188.585C229.93 188.62 230.474 188.868 230.879 189.282C231.284 189.695 231.521 190.245 231.544 190.823C231.689 191.982 230.434 192.829 228.557 192.829Z" fill="#191919"/>
<path d="M376.279 253.509C376.251 253.767 376.235 254.027 376.208 254.298C376.235 254.027 376.265 253.767 376.279 253.509Z" fill="url(#paint1_linear_4438_9768)"/>
<path d="M500.968 208.833C495.904 214.656 490.83 220.464 485.638 226.446L398.064 141.714C399.708 140.021 401.278 138.382 402.84 136.76C407.937 136.346 400.988 137.662 440.2 130.535C442.639 130.091 443.244 130.447 443.14 132.957C442.62 145.783 442.167 143.813 442.167 164.352C442.167 165.448 442.483 166.306 443.929 166.33C450.04 166.443 456.15 166.645 462.26 166.76C464.512 166.804 465.153 167.336 465.186 169.544C465.293 177.389 465.444 185.22 465.501 193.064C465.501 194.708 466.145 194.93 467.567 194.799C495.762 192.218 489.72 193.317 499.562 192.664C500.869 192.577 501.409 192.851 501.371 194.125C501.223 199.016 501.097 203.929 500.968 208.833Z" fill="url(#paint2_linear_4438_9768)"/>
<path d="M297.671 217.352C297.427 220.752 297.169 224.15 296.912 227.764C280.102 226.394 263.536 225.04 246.858 223.654V221.374C250.299 217.703 253.736 214.031 257.168 210.359C259.086 208.299 259.489 209.157 262.834 213.672C264.555 215.996 266.276 218.33 268.098 220.771C269.904 218.807 271.564 217.009 273.233 215.207C274.205 214.157 275.186 214.069 276.129 215.223C276.995 216.281 281.179 221.618 282.527 223.295C284.719 220.925 288.895 216.749 291.462 214.332C294.109 211.836 295.49 214.53 297.671 217.352Z" fill="url(#paint3_linear_4438_9768)"/>
<defs>
<linearGradient id="paint0_linear_4438_9768" x1="63.6576" y1="170.021" x2="118.059" y2="383.91" gradientUnits="userSpaceOnUse">
<stop stop-color="#06EBBD"/>
<stop offset="1" stop-color="#1EFF9D"/>
</linearGradient>
<linearGradient id="paint1_linear_4438_9768" x1="376.22" y1="253.442" x2="376.562" y2="253.568" gradientUnits="userSpaceOnUse">
<stop stop-color="#06EBBD"/>
<stop offset="1" stop-color="#1EFF9D"/>
</linearGradient>
<linearGradient id="paint2_linear_4438_9768" x1="416.143" y1="122.223" x2="443.995" y2="244.363" gradientUnits="userSpaceOnUse">
<stop stop-color="#06EBBD"/>
<stop offset="1" stop-color="#1EFF9D"/>
</linearGradient>
<linearGradient id="paint3_linear_4438_9768" x1="255.75" y1="207.733" x2="257.933" y2="232.234" gradientUnits="userSpaceOnUse">
<stop stop-color="#06EBBD"/>
<stop offset="1" stop-color="#1EFF9D"/>
</linearGradient>
</defs>
</svg>
