<svg width="34" height="30" viewBox="0 0 34 30" fill="none" xmlns="http://www.w3.org/2000/svg">
<path d="M29 28C29 28.3978 28.842 28.7794 28.5607 29.0607C28.2794 29.342 27.8978 29.5 27.5 29.5H6.5C6.10218 29.5 5.72064 29.342 5.43934 29.0607C5.15804 28.7794 5 28.3978 5 28V14.5H0.5L15.9905 0.418002C16.2667 0.166719 16.6266 0.0274658 17 0.0274658C17.3734 0.0274658 17.7333 0.166719 18.0095 0.418002L33.5 14.5H29V28ZM10.25 17.5C10.25 19.2902 10.9612 21.0071 12.227 22.273C13.4929 23.5388 15.2098 24.25 17 24.25C18.7902 24.25 20.5071 23.5388 21.773 22.273C23.0388 21.0071 23.75 19.2902 23.75 17.5H20.75C20.75 18.4946 20.3549 19.4484 19.6516 20.1517C18.9484 20.8549 17.9946 21.25 17 21.25C16.0054 21.25 15.0516 20.8549 14.3483 20.1517C13.6451 19.4484 13.25 18.4946 13.25 17.5H10.25Z" fill="black"/>
</svg>
