<svg width="24" height="24" viewBox="0 0 24 24" fill="none" xmlns="http://www.w3.org/2000/svg">
<g clip-path="url(#clip0_1222_1669)">
<path d="M12.5403 0.463995L12.8778 2.69114C13.5361 7.04626 16.9547 10.4648 21.3098 11.1232L23.5369 11.4606C24.1567 11.5543 24.1567 12.4468 23.5369 12.5404L21.3098 12.8779C16.9547 13.5362 13.5361 16.9548 12.8778 21.3099L12.5403 23.5371C12.4467 24.1568 11.5541 24.1568 11.4605 23.5371L11.123 21.3099C10.4647 16.9548 7.04614 13.5362 2.69102 12.8779L0.463873 12.5404C-0.155926 12.4468 -0.155926 11.5543 0.463873 11.4606L2.69102 11.1232C7.04614 10.4648 10.4647 7.04626 11.123 2.69114L11.4605 0.463995C11.5541 -0.155804 12.4467 -0.155804 12.5403 0.463995Z" fill="#222325"/>
</g>
<defs>
<clipPath id="clip0_1222_1669">
<rect width="24" height="24" fill="white"/>
</clipPath>
</defs>
</svg>
