<svg width="41" height="40" viewBox="0 0 41 40" fill="none" xmlns="http://www.w3.org/2000/svg">
<path d="M20.5 15.625H29.25C29.5815 15.625 29.8995 15.4933 30.1339 15.2589C30.3683 15.0245 30.5 14.7065 30.5 14.375C30.5 14.0435 30.3683 13.7255 30.1339 13.4911C29.8995 13.2567 29.5815 13.125 29.25 13.125H20.5C20.1685 13.125 19.8505 13.2567 19.6161 13.4911C19.3817 13.7255 19.25 14.0435 19.25 14.375C19.25 14.7065 19.3817 15.0245 19.6161 15.2589C19.8505 15.4933 20.1685 15.625 20.5 15.625Z" fill="black"/>
<path d="M35.5 10.5125C35.4972 9.85053 35.232 9.21669 34.7625 8.75L31.75 5.7375C31.2833 5.26802 30.6495 5.00279 29.9875 5H15.5C14.837 5 14.2011 5.26339 13.7322 5.73223C13.2634 6.20107 13 6.83696 13 7.5V16.6C13.0028 16.6799 13.035 16.7559 13.0903 16.8135C13.1457 16.8712 13.2203 16.9064 13.3 16.9125C13.7625 16.9125 14.55 16.9125 15.1625 17.0125C15.2056 17.016 15.2489 17.0104 15.2898 16.9963C15.3306 16.9821 15.3681 16.9597 15.3998 16.9303C15.4315 16.9009 15.4568 16.8653 15.4741 16.8257C15.4913 16.786 15.5001 16.7432 15.5 16.7V8.125C15.5 7.95924 15.5658 7.80027 15.6831 7.68306C15.8003 7.56585 15.9592 7.5 16.125 7.5H29.725C29.807 7.499 29.8882 7.51517 29.9636 7.54746C30.0389 7.57975 30.1067 7.62745 30.1625 7.6875L32.8125 10.3375C32.8725 10.3933 32.9202 10.4611 32.9525 10.5364C32.9848 10.6118 33.001 10.693 33 10.775V27.5C33 27.6658 32.9342 27.8247 32.8169 27.9419C32.6997 28.0592 32.5408 28.125 32.375 28.125H23.8C23.7273 28.127 23.6575 28.1543 23.6027 28.2022C23.5479 28.2501 23.5116 28.3157 23.5 28.3875C23.3855 29.0089 23.2182 29.6195 23 30.2125C22.9812 30.2588 22.9743 30.309 22.9799 30.3586C22.9855 30.4083 23.0034 30.4557 23.0319 30.4967C23.0605 30.5377 23.0988 30.5708 23.1434 30.5933C23.1881 30.6157 23.2376 30.6266 23.2875 30.625H33C33.663 30.625 34.2989 30.3616 34.7678 29.8928C35.2366 29.4239 35.5 28.788 35.5 28.125V10.5125Z" fill="black"/>
<path d="M27.3751 20C27.3751 19.6685 27.2434 19.3505 27.009 19.1161C26.7746 18.8817 26.4566 18.75 26.1251 18.75H21.1251C20.8239 18.7569 20.5354 18.8723 20.3126 19.075C20.2838 19.0984 20.2607 19.128 20.2448 19.1615C20.2288 19.195 20.2206 19.2317 20.2206 19.2687C20.2206 19.3058 20.2288 19.3425 20.2448 19.376C20.2607 19.4095 20.2838 19.4391 20.3126 19.4625C20.8491 19.9643 21.331 20.5216 21.7501 21.125C21.7773 21.1628 21.8129 21.1938 21.8541 21.2155C21.8953 21.2372 21.941 21.249 21.9876 21.25H26.1251C26.4566 21.25 26.7746 21.1183 27.009 20.8839C27.2434 20.6495 27.3751 20.3315 27.3751 20Z" fill="black"/>
<path d="M13.625 18.75C12.018 18.75 10.4471 19.2265 9.111 20.1193C7.77485 21.0121 6.73344 22.281 6.11848 23.7657C5.50352 25.2503 5.34262 26.884 5.65612 28.4601C5.96963 30.0362 6.74346 31.4839 7.87976 32.6202C9.01606 33.7565 10.4638 34.5304 12.0399 34.8439C13.616 35.1574 15.2497 34.9965 16.7343 34.3815C18.219 33.7666 19.4879 32.7252 20.3807 31.389C21.2735 30.0529 21.75 28.482 21.75 26.875C21.7467 24.7211 20.8896 22.6564 19.3666 21.1334C17.8436 19.6104 15.7789 18.7533 13.625 18.75ZM16.9375 30.1875C16.7617 30.3631 16.5234 30.4617 16.275 30.4617C16.0266 30.4617 15.7883 30.3631 15.6125 30.1875L13.85 28.425C13.8209 28.3948 13.7859 28.3707 13.7472 28.3543C13.7086 28.3378 13.667 28.3294 13.625 28.3294C13.583 28.3294 13.5414 28.3378 13.5028 28.3543C13.4641 28.3707 13.4292 28.3948 13.4 28.425L11.6375 30.1875C11.4598 30.3531 11.2247 30.4433 10.9819 30.439C10.739 30.4347 10.5072 30.3363 10.3355 30.1645C10.1637 29.9928 10.0653 29.761 10.061 29.5182C10.0567 29.2753 10.1469 29.0402 10.3125 28.8625L12.075 27.1C12.1052 27.0708 12.1293 27.0359 12.1457 26.9972C12.1622 26.9586 12.1706 26.917 12.1706 26.875C12.1706 26.833 12.1622 26.7914 12.1457 26.7528C12.1293 26.7141 12.1052 26.6792 12.075 26.65L10.3125 24.8875C10.2204 24.8017 10.1465 24.6982 10.0953 24.5832C10.044 24.4682 10.0165 24.344 10.0143 24.2182C10.012 24.0923 10.0352 23.9672 10.0824 23.8505C10.1295 23.7338 10.1997 23.6277 10.2887 23.5387C10.3777 23.4497 10.4838 23.3795 10.6005 23.3323C10.7172 23.2852 10.8423 23.262 10.9682 23.2643C11.094 23.2665 11.2182 23.294 11.3332 23.3453C11.4482 23.3965 11.5517 23.4704 11.6375 23.5625L13.4 25.325C13.4292 25.3552 13.4641 25.3793 13.5028 25.3957C13.5414 25.4122 13.583 25.4206 13.625 25.4206C13.667 25.4206 13.7086 25.4122 13.7472 25.3957C13.7859 25.3793 13.8209 25.3552 13.85 25.325L15.6125 23.5625C15.6983 23.4704 15.8018 23.3965 15.9168 23.3453C16.0318 23.294 16.156 23.2665 16.2819 23.2643C16.4077 23.262 16.5328 23.2852 16.6495 23.3323C16.7662 23.3795 16.8723 23.4497 16.9613 23.5387C17.0503 23.6277 17.1205 23.7338 17.1677 23.8505C17.2148 23.9672 17.238 24.0923 17.2357 24.2182C17.2335 24.344 17.206 24.4682 17.1547 24.5832C17.1035 24.6982 17.0296 24.8017 16.9375 24.8875L15.175 26.65C15.1448 26.6792 15.1207 26.7141 15.1043 26.7528C15.0878 26.7914 15.0794 26.833 15.0794 26.875C15.0794 26.917 15.0878 26.9586 15.1043 26.9972C15.1207 27.0359 15.1448 27.0708 15.175 27.1L16.9375 28.8625C17.1131 29.0383 17.2117 29.2766 17.2117 29.525C17.2117 29.7734 17.1131 30.0117 16.9375 30.1875Z" fill="black"/>
</svg>
