<svg width="38" height="36" viewBox="0 0 38 36" fill="none" xmlns="http://www.w3.org/2000/svg">
<g clip-path="url(#clip0_1222_1512)">
<path d="M6.25 3H31.25C31.6644 3 32.0618 3.15804 32.3549 3.43934C32.6479 3.72064 32.8125 4.10218 32.8125 4.5V33.414C32.8126 33.5392 32.7801 33.6623 32.718 33.7724C32.6558 33.8824 32.566 33.9757 32.4566 34.0438C32.3473 34.112 32.2219 34.1528 32.0919 34.1625C31.962 34.1722 31.8315 34.1506 31.7125 34.0995L18.75 28.545L5.7875 34.098C5.6686 34.149 5.5383 34.1707 5.40845 34.161C5.27861 34.1514 5.15333 34.1107 5.04403 34.0427C4.93472 33.9748 4.84484 33.8817 4.78258 33.7718C4.72031 33.662 4.68763 33.539 4.6875 33.414V4.5C4.6875 4.10218 4.85212 3.72064 5.14515 3.43934C5.43817 3.15804 5.8356 3 6.25 3ZM29.6875 29.9475V6H7.8125V29.9475L18.75 25.2615L29.6875 29.9475ZM18.75 20.25L14.1578 22.5675L15.0344 17.6595L11.3203 14.1825L16.4547 13.4655L18.75 9L21.0469 13.4655L26.1797 14.1825L22.4656 17.6595L23.3406 22.5675L18.75 20.25Z" fill="#222325"/>
</g>
<defs>
<clipPath id="clip0_1222_1512">
<rect width="37.5" height="36" fill="white"/>
</clipPath>
</defs>
</svg>
