<svg width="28" height="32" viewBox="0 0 28 32" fill="none" xmlns="http://www.w3.org/2000/svg">
<path d="M13.9998 23.9167C19.7986 23.9167 24.8694 26.4107 27.6277 30.1309L24.7112 31.5104C22.4665 28.8499 18.5082 27.0834 13.9998 27.0834C9.49135 27.0834 5.53308 28.8499 3.28834 31.5104L0.373047 30.1294C3.13155 26.41 8.2017 23.9167 13.9998 23.9167ZM13.9998 0.166748C18.372 0.166748 21.9164 3.71117 21.9164 8.08342V12.8334C21.9164 17.0907 18.5561 20.5629 14.3432 20.7428L13.9998 20.7501C9.6275 20.7501 6.0831 17.2056 6.0831 12.8334V8.08342C6.0831 3.82623 9.44341 0.353867 13.6563 0.174063L13.9998 0.166748ZM13.9998 3.33341C11.4701 3.33341 9.40229 5.31087 9.25783 7.80432L9.24977 8.08342V12.8334C9.24977 15.4568 11.3763 17.5834 13.9998 17.5834C16.5295 17.5834 18.5973 15.606 18.7417 13.1126L18.7498 12.8334V8.08342C18.7498 5.46007 16.623 3.33341 13.9998 3.33341Z" fill="#1EFF9D"/>
</svg>
