<svg width="94" height="94" viewBox="0 0 94 94" fill="none" xmlns="http://www.w3.org/2000/svg">
<path d="M74.4168 54.8333C80.2527 49.115 86.1668 42.2608 86.1668 33.2917C86.1668 27.5785 83.8973 22.0993 79.8574 18.0594C75.8176 14.0196 70.3384 11.75 64.6252 11.75C57.7318 11.75 52.8752 13.7083 47.0002 19.5833C41.1252 13.7083 36.2685 11.75 29.3752 11.75C23.662 11.75 18.1828 14.0196 14.1429 18.0594C10.1031 22.0993 7.8335 27.5785 7.8335 33.2917C7.8335 42.3 13.7085 49.1542 19.5835 54.8333L47.0002 82.25L74.4168 54.8333Z" stroke="#1EFF9D" stroke-width="5" stroke-linecap="round" stroke-linejoin="round"/>
<path d="M47.0001 19.5833L35.4068 31.1766C34.611 31.9666 33.9794 32.9063 33.5484 33.9415C33.1174 34.9767 32.8955 36.0869 32.8955 37.2083C32.8955 38.3296 33.1174 39.4398 33.5484 40.475C33.9794 41.5102 34.611 42.4499 35.4068 43.2399C38.6185 46.4516 43.7493 46.5691 47.1568 43.5141L55.2643 36.0724C57.2965 34.2284 59.9423 33.2069 62.6864 33.2069C65.4304 33.2069 68.0763 34.2284 70.1084 36.0724L81.7018 46.4908" stroke="#1EFF9D" stroke-width="5" stroke-linecap="round" stroke-linejoin="round"/>
<path d="M70.4998 58.7501L62.6665 50.9167" stroke="#1EFF9D" stroke-width="5" stroke-linecap="round" stroke-linejoin="round"/>
<path d="M58.7498 70.5001L50.9165 62.6667" stroke="#1EFF9D" stroke-width="5" stroke-linecap="round" stroke-linejoin="round"/>
</svg>
