<svg width="38" height="36" viewBox="0 0 38 36" fill="none" xmlns="http://www.w3.org/2000/svg">
<g clip-path="url(#clip0_1222_1530)">
<path d="M-0.3125 27.75V7.5C-0.3125 6.30653 0.18136 5.16193 1.06044 4.31802C1.93951 3.47411 3.1318 3 4.375 3H26.25C26.6644 3 27.0618 3.15804 27.3549 3.43934C27.6479 3.72064 27.8125 4.10218 27.8125 4.5V31.5C27.8125 31.8978 27.6479 32.2794 27.3549 32.5607C27.0618 32.842 26.6644 33 26.25 33H5.15625C3.70585 33 2.31485 32.4469 1.28926 31.4623C0.263671 30.4777 -0.3125 29.1424 -0.3125 27.75ZM24.6875 30V25.5H5.15625C4.53465 25.5 3.93851 25.7371 3.49897 26.159C3.05943 26.581 2.8125 27.1533 2.8125 27.75C2.8125 28.3467 3.05943 28.919 3.49897 29.341C3.93851 29.7629 4.53465 30 5.15625 30H24.6875ZM10.625 6H4.375C3.9606 6 3.56317 6.15804 3.27015 6.43934C2.97712 6.72064 2.8125 7.10218 2.8125 7.5V23.0055C3.54483 22.6717 4.34555 22.499 5.15625 22.5H24.6875V6H21.5625V18L16.0938 15L10.625 18V6Z" fill="black"/>
</g>
<defs>
<clipPath id="clip0_1222_1530">
<rect width="37.5" height="36" fill="white"/>
</clipPath>
</defs>
</svg>
