<svg width="36" height="36" viewBox="0 0 36 36" fill="none" xmlns="http://www.w3.org/2000/svg">
  <g transform="translate(3.5, 9)">
    <path d="M17.6069 5.45459H24.8569V7.63641H17.6069V5.45459ZM17.6069 10.9091H24.8569V13.091H17.6069V10.9091ZM17.6069 16.3637H24.8569V18.5455H17.6069V16.3637Z" fill="#1EFF9D"/>
    <path d="M26.9286 0H2.07143C1.52205 0 0.995175 0.229869 0.606707 0.63904C0.218239 1.04821 0 1.60316 0 2.18182V21.8182C0 22.3968 0.218239 22.9518 0.606707 23.361C0.995175 23.7701 1.52205 24 2.07143 24H26.9286C27.4777 23.9991 28.0041 23.769 28.3924 23.36C28.7807 22.951 28.9992 22.3966 29 21.8182V2.18182C29 1.60316 28.7818 1.04821 28.3933 0.63904C28.0048 0.229869 27.4779 0 26.9286 0ZM2.07143 2.18182H13.4643V21.8182H2.07143V2.18182ZM15.5357 21.8182V2.18182H26.9286L26.9306 21.8182H15.5357Z" fill="#1EFF9D"/>
  </g>
</svg>

