<svg width="35" height="35" viewBox="0 0 35 35" fill="none" xmlns="http://www.w3.org/2000/svg">
<path d="M30.2853 6.65049C30.6978 6.65049 31.0935 6.81379 31.3852 7.10447C31.6769 7.39515 31.8408 7.7894 31.8408 8.20049C31.8408 8.61157 31.6769 9.00582 31.3852 9.2965C31.0935 9.58718 30.6978 9.75049 30.2853 9.75049H28.7297L28.725 9.86054L27.2737 30.1206C27.2178 30.9027 26.8666 31.6346 26.2908 32.169C25.7149 32.7034 24.9573 33.0005 24.1704 33.0005H11.5097C10.7228 33.0005 9.96515 32.7034 9.38931 32.169C8.81347 31.6346 8.46225 30.9027 8.40638 30.1206L6.95504 9.86209L6.95193 9.75049H5.39638C4.98382 9.75049 4.58816 9.58718 4.29643 9.2965C4.00471 9.00582 3.84082 8.61157 3.84082 8.20049C3.84082 7.7894 4.00471 7.39515 4.29643 7.10447C4.58816 6.81379 4.98382 6.65049 5.39638 6.65049H30.2853ZM25.6139 9.75049H10.0677L11.5113 29.9005H24.1704L25.6139 9.75049ZM20.9519 2.00049C21.3645 2.00049 21.7602 2.16379 22.0519 2.45447C22.3436 2.74515 22.5075 3.1394 22.5075 3.55049C22.5075 3.96157 22.3436 4.35582 22.0519 4.6465C21.7602 4.93719 21.3645 5.10049 20.9519 5.10049H14.7297C14.3172 5.10049 13.9215 4.93719 13.6298 4.6465C13.338 4.35582 13.1742 3.96157 13.1742 3.55049C13.1742 3.1394 13.338 2.74515 13.6298 2.45447C13.9215 2.16379 14.3172 2.00049 14.7297 2.00049H20.9519Z" fill="#000000"/>
</svg>
