<svg width="32" height="32" viewBox="0 0 32 32" fill="none" xmlns="http://www.w3.org/2000/svg">
<path d="M2.6665 28.0003C2.66639 25.9474 3.25868 23.938 4.3723 22.2134C5.48591 20.4888 7.07354 19.1222 8.94464 18.2776C10.8157 17.433 12.8908 17.1463 14.9209 17.4518C16.9509 17.7574 18.8496 18.6423 20.3892 20.0003" stroke="#1EFF9D" stroke-width="2" stroke-linecap="round" stroke-linejoin="round"/>
<path d="M13.3332 17.3336C17.0151 17.3336 19.9998 14.3488 19.9998 10.6669C19.9998 6.98501 17.0151 4.00024 13.3332 4.00024C9.65127 4.00024 6.6665 6.98501 6.6665 10.6669C6.6665 14.3488 9.65127 17.3336 13.3332 17.3336Z" stroke="#1EFF9D" stroke-width="2" stroke-linecap="round" stroke-linejoin="round"/>
<path d="M21.3335 25.3337L24.0002 28.0003L29.3335 22.667" stroke="#1EFF9D" stroke-width="2" stroke-linecap="round" stroke-linejoin="round"/>
</svg>
