<svg width="22" height="22" viewBox="0 0 22 22" fill="none" xmlns="http://www.w3.org/2000/svg">
<g clip-path="url(#clip0_1222_1188)">
<path d="M6.41663 9.16663V20.1666" stroke="#222325" strokeWidth="2" strokeLinecap="round" strokeLinejoin="round"/>
<path d="M13.75 5.39004L12.8334 9.16671H18.1775C18.4622 9.16671 18.7429 9.23297 18.9974 9.36026C19.252 9.48754 19.4734 9.67235 19.6442 9.90004C19.815 10.1277 19.9304 10.3921 19.9813 10.6721C20.0322 10.9521 20.0172 11.2401 19.9375 11.5134L17.8017 18.8467C17.6906 19.2275 17.4591 19.562 17.1417 19.8C16.8244 20.038 16.4384 20.1667 16.0417 20.1667H3.66671C3.18048 20.1667 2.71416 19.9736 2.37034 19.6297C2.02653 19.2859 1.83337 18.8196 1.83337 18.3334V11C1.83337 10.5138 2.02653 10.0475 2.37034 9.70368C2.71416 9.35986 3.18048 9.16671 3.66671 9.16671H6.19671C6.53778 9.16653 6.87205 9.0712 7.16192 8.89145C7.45178 8.7117 7.68576 8.45465 7.83754 8.14921L11 1.83337C11.4323 1.83873 11.8578 1.9417 12.2447 2.13459C12.6316 2.32748 12.9699 2.60531 13.2343 2.94731C13.4988 3.28931 13.6825 3.68665 13.7718 4.10964C13.8611 4.53263 13.8537 4.97033 13.75 5.39004Z" stroke="#222325" strokeWidth="2" strokeLinecap="round" strokeLinejoin="round"/>
</g>
<defs>
<clipPath id="clip0_1222_1188">
<rect width="22" height="22" fill="white"/>
</clipPath>
</defs>
</svg>
