<svg width="40" height="40" viewBox="0 0 40 40" fill="none" xmlns="http://www.w3.org/2000/svg">
<path d="M20.0002 36.6666C10.7954 36.6666 3.3335 29.2046 3.3335 19.9999C3.3335 10.7952 10.7954 3.33325 20.0002 3.33325C29.2048 3.33325 36.6668 10.7952 36.6668 19.9999C36.6668 29.2046 29.2048 36.6666 20.0002 36.6666ZM20.0002 33.3333C27.364 33.3333 33.3335 27.3638 33.3335 19.9999C33.3335 12.6361 27.364 6.66659 20.0002 6.66659C12.6364 6.66659 6.66683 12.6361 6.66683 19.9999C6.66683 27.3638 12.6364 33.3333 20.0002 33.3333ZM18.3335 24.9999H21.6668V28.3333H18.3335V24.9999ZM21.6668 22.2584V23.3333H18.3335V20.8333C18.3335 19.9128 19.0797 19.1666 20.0002 19.1666C21.3808 19.1666 22.5002 18.0473 22.5002 16.6666C22.5002 15.2859 21.3808 14.1666 20.0002 14.1666C18.7873 14.1666 17.7762 15.0303 17.5482 16.1762L14.279 15.5224C14.8108 12.8486 17.1702 10.8333 20.0002 10.8333C23.2218 10.8333 25.8335 13.4449 25.8335 16.6666C25.8335 19.3091 24.0763 21.5413 21.6668 22.2584Z" fill="black"/>
</svg>
