<?xml version="1.0" standalone="no"?>
<!DOCTYPE svg PUBLIC "-//W3C//DTD SVG 20010904//EN"
 "http://www.w3.org/TR/2001/REC-SVG-20010904/DTD/svg10.dtd">
<svg version="1.0" xmlns="http://www.w3.org/2000/svg"
 width="48.000000pt" height="48.000000pt" viewBox="0 0 48.000000 48.000000"
 preserveAspectRatio="xMidYMid meet">

<g transform="translate(0.000000,48.000000) scale(0.100000,-0.100000)"
fill="#000000" stroke="none">
<path d="M170 404 c-19 -8 -42 -22 -52 -31 -17 -15 -18 -14 -18 10 0 21 -5 27
-20 27 -19 0 -21 -5 -18 -62 l3 -63 63 -3 c57 -3 62 -1 62 18 0 16 -6 20 -31
20 -27 0 -30 2 -18 16 56 67 169 53 219 -28 71 -117 -71 -259 -188 -188 -35
21 -72 74 -72 103 0 10 -8 17 -20 17 -26 0 -26 -24 3 -80 49 -98 166 -128 258
-67 41 27 79 98 79 147 0 41 -29 108 -56 132 -52 46 -132 59 -194 32z"/>
</g>
</svg>
