<svg width="24" height="24" viewBox="0 0 24 24" fill="none" xmlns="http://www.w3.org/2000/svg">
<path d="M19.4502 14.5C19.6501 14.5833 19.8378 14.6711 20.0127 14.7627C20.1875 14.8543 20.3667 14.9664 20.5498 15.0996L22 14.6504L23 16.3496L21.8496 17.3496C21.8829 17.5663 21.8994 17.7833 21.8994 18C21.8994 18.2167 21.8829 18.4337 21.8496 18.6504L23 19.6504L22 21.3496L20.5498 20.9004C20.3667 21.0336 20.1875 21.1457 20.0127 21.2373C19.8378 21.3289 19.6501 21.4167 19.4502 21.5L19.1494 23H17.1494L16.8496 21.5C16.6497 21.4167 16.4621 21.3289 16.2871 21.2373C16.1123 21.1457 15.9331 21.0336 15.75 20.9004L14.2998 21.3496L13.2998 19.6504L14.4502 18.6504C14.4169 18.4337 14.3994 18.2167 14.3994 18C14.3994 17.7833 14.4169 17.5663 14.4502 17.3496L13.2998 16.3496L14.2998 14.6504L15.75 15.0996C15.9331 14.9664 16.1123 14.8543 16.2871 14.7627C16.4621 14.6711 16.6497 14.5833 16.8496 14.5L17.1494 13H19.1494L19.4502 14.5ZM18.1494 16C17.5996 16.0001 17.1289 16.1963 16.7373 16.5879C16.3458 16.9795 16.1494 17.4501 16.1494 18C16.1494 18.5499 16.3458 19.0205 16.7373 19.4121C17.1289 19.8037 17.5996 19.9999 18.1494 20C18.6994 20 19.1708 19.8038 19.5625 19.4121C19.954 19.0205 20.1494 18.5499 20.1494 18C20.1494 17.4501 19.954 16.9795 19.5625 16.5879C19.1708 16.1962 18.6994 16 18.1494 16ZM17 7.58594V11H15V8.5H10.5V4H5V17H11V19H4C3.44772 19 3 18.5523 3 18V3C3 2.44772 3.44772 2 4 2H11.4141L17 7.58594Z" fill="#222325"/>
</svg>
