<svg width="36" height="36" viewBox="0 0 36 36" fill="none" xmlns="http://www.w3.org/2000/svg">
<g clip-path="url(#clip0_683_941)">
<path d="M17.9988 25.5C23.4918 25.5 28.2963 27.8625 30.9093 31.3875L28.1463 32.694C26.0193 30.174 22.2693 28.5 17.9988 28.5C13.7283 28.5 9.97834 30.174 7.85134 32.694L5.08984 31.386C7.70284 27.861 12.5058 25.5 17.9988 25.5ZM17.9988 3C19.988 3 21.8956 3.79018 23.3021 5.1967C24.7087 6.60322 25.4988 8.51088 25.4988 10.5V15C25.4987 16.9327 24.7525 18.7907 23.4159 20.1867C22.0792 21.5826 20.2552 22.4086 18.3243 22.4925L17.9988 22.5C16.0097 22.5 14.1021 21.7098 12.6955 20.3033C11.289 18.8968 10.4988 16.9891 10.4988 15V10.5C10.499 8.56731 11.2452 6.70926 12.5818 5.31333C13.9185 3.91741 15.7425 3.09138 17.6733 3.0075L17.9988 3ZM17.9988 6C16.851 5.99994 15.7466 6.43849 14.9115 7.22593C14.0763 8.01336 13.5737 9.09016 13.5063 10.236L13.4988 10.5V15C13.4977 16.1714 13.9534 17.297 14.769 18.1377C15.5846 18.9785 16.6959 19.468 17.8668 19.5024C19.0376 19.5368 20.1758 19.1132 21.0393 18.3218C21.9028 17.5304 22.4238 16.4334 22.4913 15.264L22.4988 15V10.5C22.4988 9.30653 22.0247 8.16193 21.1808 7.31802C20.3369 6.47411 19.1923 6 17.9988 6Z" fill="white"/>
</g>
<defs>
<clipPath id="clip0_683_941">
<rect width="36" height="36" fill="white"/>
</clipPath>
</defs>
</svg>
