<svg width="22" height="22" viewBox="0 0 22 22" fill="none" xmlns="http://www.w3.org/2000/svg">
<path d="M18.3332 7.18292V19.25C18.3332 19.7563 17.9228 20.1666 17.4165 20.1666H4.58317C4.07691 20.1666 3.6665 19.7563 3.6665 19.25V2.74998C3.6665 2.24372 4.07691 1.83331 4.58317 1.83331H12.9836L18.3332 7.18292ZM5.49984 18.3333H9.1665V16.5H10.9998V18.3333H16.4998V7.94203L12.2244 3.66665H9.1665V5.49998H7.33317V3.66665H5.49984V18.3333ZM9.1665 16.5H7.33317V14.6666H9.1665V16.5ZM10.9998 14.6666H9.1665V12.8333H10.9998V14.6666ZM9.1665 12.8333H7.33317V11H9.1665V12.8333ZM10.9998 11H9.1665V9.16665H10.9998V11ZM9.1665 9.16665H7.33317V7.33331H9.1665V9.16665ZM10.9998 7.33331H9.1665V5.49998H10.9998V7.33331Z" fill="black"/>
</svg>
