<svg width="36" height="36" viewBox="0 0 36 36" fill="none" xmlns="http://www.w3.org/2000/svg">
<path d="M6.34082 30.5C5.51582 30.5 4.80982 30.182 4.22282 29.5461C3.63582 28.9102 3.34182 28.1448 3.34082 27.25V7.75C3.34082 6.85625 3.63482 6.09142 4.22282 5.4555C4.81082 4.81958 5.51682 4.50108 6.34082 4.5H15.3408L18.3408 7.75H30.3408C31.1658 7.75 31.8723 8.0685 32.4603 8.7055C33.0483 9.3425 33.3418 10.1073 33.3408 11V27.25C33.3408 28.1437 33.0473 28.9091 32.4603 29.5461C31.8733 30.1831 31.1668 30.5011 30.3408 30.5H6.34082ZM6.34082 27.25H30.3408V11H17.1033L14.1033 7.75H6.34082V27.25Z" fill="url(#paint0_linear_4721_335)"/>
<defs>
<linearGradient id="paint0_linear_4721_335" x1="8.59082" y1="2.29464" x2="15.6611" y2="35.5651" gradientUnits="userSpaceOnUse">
<stop stop-color="#06EBBD"/>
<stop offset="1" stop-color="#1EFF9D"/>
</linearGradient>
</defs>
</svg>
