<svg width="118" height="115" viewBox="0 0 118 115" fill="none" xmlns="http://www.w3.org/2000/svg">
<g clip-path="url(#clip0_1222_1841)">
<path fill-rule="evenodd" clip-rule="evenodd" d="M117.185 49.5254C116.85 50.5149 116.269 51.1347 115.76 51.2615C114.804 51.5008 114.329 50.4759 114.395 50.3944C115.494 49.2563 115.804 47.5609 115.436 46.0994C114.752 43.3792 112.195 41.9901 109.181 42.7431C106.228 43.4807 104.513 45.6998 105.212 48.4816C105.749 50.6128 107.338 51.856 109.156 51.682L109.991 51.4736L109.215 48.3873C109.036 47.6769 109.174 47.2764 109.743 47.1332L109.845 47.1079C110.436 46.9602 110.747 47.2501 110.925 47.9605L111.885 51.7771C112.074 52.5283 111.698 53.0104 110.964 53.1934L105.344 54.5979C105.282 54.6133 105.063 54.3442 104.967 53.9591C104.813 53.3501 104.986 52.7458 106.371 52.3996L106.616 52.338C105.108 51.8523 103.931 50.5276 103.421 48.4979C102.466 44.7012 104.73 41.5678 108.66 40.5856C112.692 39.578 116.238 41.6267 117.238 45.6055C117.641 47.2094 117.525 48.555 117.185 49.5254ZM110.022 30.1761L100.675 36.933C100.063 37.3752 99.4675 37.3408 99.0976 36.8324L98.9985 36.6965C98.6167 36.1719 98.6713 35.9254 98.8476 35.3845L102.802 23.8142L94.9663 29.4775C94.4391 29.8589 93.9955 29.8182 93.6256 29.3098L93.4901 29.1232C93.132 28.632 93.2438 28.2152 93.771 27.8347L103.119 21.0777C103.713 20.6473 104.314 20.6527 104.709 21.1955L104.919 21.4836C105.299 22.0083 105.228 22.3716 105.019 23.0132L101.246 34.0117L108.826 28.5324C109.353 28.1518 109.786 28.1754 110.155 28.6837L110.303 28.8876C110.649 29.3615 110.549 29.7955 110.022 30.1761ZM88.8562 23.6982C88.4563 24.2102 88.0018 24.2808 87.5046 23.8957L87.2728 23.7154C86.7929 23.3421 86.7501 22.8854 87.1501 22.3735L94.3873 13.1102C94.7872 12.5982 95.2417 12.5266 95.7217 12.8999L95.9544 13.0803C96.4516 13.4663 96.4934 13.923 96.0934 14.4349L88.8562 23.6982ZM87.5682 8.51613C87.3373 9.05527 86.8974 9.23196 86.2984 8.97825L82.8788 7.52573L78.6658 17.3862C78.4103 17.9833 77.9704 18.16 77.3905 17.9144L77.1196 17.7993C76.5597 17.561 76.4015 17.1306 76.6569 16.5335L80.87 6.67307L77.4505 5.22056C76.8515 4.96684 76.6551 4.51922 76.8851 3.98008L76.926 3.88312C77.1569 3.34398 77.6077 3.19447 78.2076 3.44909L87.0555 7.20587C87.6536 7.46049 87.84 7.88003 87.6091 8.42008L87.5682 8.51613ZM67.4273 2.93894L60.5754 2.5031L60.3336 6.28435L65.6348 6.62052C66.3265 6.66492 66.6219 6.97662 66.5855 7.54114L66.5819 7.60366C66.5446 8.18811 66.1892 8.48079 65.5184 8.4382L60.2173 8.10112L59.9555 12.195L66.9328 12.6381C67.6036 12.6807 67.899 12.9933 67.8636 13.5569L67.8563 13.662C67.8181 14.2673 67.4818 14.5817 66.8119 14.5391L58.8284 14.0317C58.1376 13.9882 57.7058 13.4989 57.7531 12.7677L58.463 1.65587C58.5093 0.924633 59.0011 0.47429 59.6928 0.517784L67.55 1.01706C68.2199 1.05965 68.5344 1.41485 68.498 1.97936L68.4898 2.1044C68.4526 2.68885 68.0972 2.98153 67.4273 2.93894ZM51.7184 14.6986C51.2712 14.8182 50.8831 14.7484 50.425 14.4159L43.5086 10.0176L44.9721 15.477C45.1402 16.1049 44.9221 16.509 44.314 16.6712L44.0095 16.7528C43.4413 16.9041 43.0505 16.6613 42.8832 16.0342L39.8418 4.68957C39.6737 4.06253 39.8918 3.6584 40.4599 3.50708L40.7644 3.42553C41.3725 3.26424 41.7634 3.50618 41.9315 4.13321L43.3405 9.39053L47.11 2.45054C47.409 1.78545 47.7217 1.57251 48.0871 1.47556C48.9797 1.23815 49.4915 2.01107 49.4724 2.10259L45.7238 9.03715L52.671 13.4699C52.7792 13.5505 52.631 14.4558 51.7184 14.6986ZM37.2222 19.8019C36.7531 20.119 36.3105 20.1399 35.5869 19.8952L29.955 18.2162L28.7206 19.0507L31.1957 22.6879C31.5257 23.1727 31.4884 23.6783 30.9676 24.0308L30.7239 24.1957C30.2377 24.5237 29.7532 24.3715 29.3523 23.7825L22.9895 14.4286C22.5768 13.8224 22.6877 13.1663 23.2604 12.7785L26.4582 10.6165C29.2032 8.76078 31.4411 8.91663 32.9491 11.1339C34.0917 12.8139 33.949 14.5799 32.4764 16.1067C32.2856 16.3115 32.0656 16.5108 31.8347 16.6921L37.7694 18.3693C37.9275 18.4146 37.9693 19.2963 37.2222 19.8019ZM31.2012 12.4424C30.3176 11.143 29.0233 11.0315 27.3726 12.1479L25.062 13.71L27.7489 17.6598L30.1113 16.0614C31.762 14.946 32.0256 13.6547 31.2012 12.4424ZM25.8064 28.6302C25.5201 29.018 25.0356 29.2863 24.2357 29.0624L21.0407 28.1989L17.8157 32.5628L19.6082 35.3609C20.0545 36.0269 19.9663 36.5343 19.6936 36.9049C19.3191 37.4106 18.5856 37.6262 18.471 37.464L11.2938 26.2145C11.0384 25.8185 11.0347 25.3999 11.6201 24.608C12.2173 23.7997 12.6073 23.6955 13.0618 23.8214L25.9928 27.2855C26.1646 27.3336 26.1927 28.1083 25.8064 28.6302ZM13.3872 25.9581L16.724 31.1121L19.3136 27.6063L13.3872 25.9581ZM16.8003 42.7123L16.7258 42.995C16.5704 43.5821 16.1804 43.7398 15.5514 43.574L5.90816 41.0359L11.6792 45.6508C12.1482 46.0124 12.4546 46.3304 12.2182 47.2211C11.9774 48.1318 11.5638 48.2179 10.9711 48.3221L3.73935 49.4701L13.3217 51.9928C13.9507 52.1586 14.2116 52.4866 14.0507 53.0946L13.9644 53.4181C13.8144 53.9844 13.4253 54.1421 12.7963 53.9763L1.60964 51.0314C0.899733 50.8447 0.577048 50.2612 0.76975 49.5327L0.914276 48.9863C1.12879 48.1771 1.49238 48.0348 2.32863 47.9089L10.153 46.6557L3.97478 41.6956C3.28941 41.1682 3.06944 40.8511 3.27305 40.0818L3.40667 39.5762C3.60574 38.8268 4.18021 38.4589 4.89102 38.6456L16.0777 41.5905C16.7058 41.7563 16.9612 42.1052 16.8003 42.7123ZM24.0766 59.0714L25.5819 58.4127V69.4945C25.5819 70.5955 25.6973 71.633 25.9282 72.5898L22.0606 68.245C19.4364 65.2974 20.4571 60.6553 24.0766 59.0714ZM54.4899 68.7615V65.6018C54.4899 64.2907 54.9462 63.0094 55.8179 62.0263C57.1941 60.4732 59.1992 59.5535 61.7807 59.5535C65.9602 59.5535 68.9743 62.8055 68.9743 67.3869C68.9743 72.0598 66.0574 75.2212 61.6835 75.2212C57.7949 75.2212 54.4899 72.472 54.4899 68.7615ZM40.0954 73.7116C38.9474 74.5217 37.5367 74.992 35.9351 74.992C32.3874 74.992 30.3449 72.7475 30.3449 68.9445V58.3157C30.3449 57.473 30.1286 56.9248 29.7559 56.5868L82.4907 33.516C87.6691 31.2498 92.723 36.9276 89.8506 41.7844L73.4864 69.451C73.5855 68.7733 73.6392 68.0701 73.6392 67.3416C73.6392 60.3318 68.9743 55.7967 62.7033 55.7967C58.9611 55.7967 56.2887 57.3543 54.4899 59.9195C54.4899 59.461 54.3926 58.8657 54.3444 58.6365C53.9554 56.6212 52.6438 56.1174 51.4766 56.1174C50.505 56.1174 49.7269 56.4835 49.7269 56.6213V85.2076C49.7269 86.8567 50.6022 87.3615 51.8657 87.3615H52.4002C53.6155 87.3615 54.5381 86.8567 54.5381 85.2076V74.8542C55.8506 77.0534 58.6702 78.9771 62.5588 78.9771C65.0194 78.9771 67.21 78.2921 68.9834 77.0634L57.4495 96.564C55.4416 99.9584 50.6967 100.417 48.0726 97.4683L31.1266 78.4307C32.1319 78.756 33.2782 78.9318 34.5734 78.9318C38.1702 78.9318 40.6981 77.328 42.3506 75.0835C42.3506 75.6335 42.4469 76.0911 42.5451 76.5034C43.0305 78.1525 44.2458 78.5648 45.412 78.5648C46.3364 78.5648 47.1136 78.1987 47.1136 78.061V58.3157C47.1136 56.6213 46.2382 56.1174 44.9748 56.1174H44.4394C43.225 56.1174 42.3506 56.6675 42.3506 58.3157V69.2816C42.3506 71.0322 41.528 72.6995 40.0954 73.7116ZM5.75545 58.7824C6.23811 58.7824 6.62988 59.1729 6.62988 59.654C6.62988 88.6789 30.3167 112.292 59.4319 112.292C88.5463 112.292 112.234 88.6789 112.234 59.654C112.234 59.1729 112.625 58.7824 113.108 58.7824C113.591 58.7824 113.983 59.1729 113.983 59.654C113.983 89.6413 89.5116 114.037 59.4319 114.037C29.3523 114.037 4.88011 89.6413 4.88011 59.654C4.88011 59.1729 5.27188 58.7824 5.75545 58.7824Z" fill="#222325"/>
</g>
<defs>
<clipPath id="clip0_1222_1841">
<rect width="117.257" height="114.171" fill="white" transform="translate(0.371094 0.51416)"/>
</clipPath>
</defs>
</svg>
