<svg width="118" height="114" viewBox="0 0 118 114" fill="none" xmlns="http://www.w3.org/2000/svg">
<g clip-path="url(#clip0_1222_1858)">
<path fill-rule="evenodd" clip-rule="evenodd" d="M116.825 57.5414C116.448 58.2433 115.928 58.5958 115.422 58.6467C114.45 58.7449 113.614 57.653 113.67 57.583C114.54 56.682 115.12 55.2324 114.973 53.7714C114.823 52.2886 114.121 51.4613 113.128 51.5618C111.945 51.6819 111.9 52.9274 111.69 54.6601C111.391 57.1935 110.595 59.4564 108.018 59.7177C105.292 59.9936 103.505 58.1422 103.142 54.5416C102.929 52.4237 103.328 50.8857 103.943 49.9892C104.347 49.3488 104.871 49.0394 105.378 48.9879C106.244 48.9 107.135 49.901 107.04 50.0176C106.151 50.9422 105.443 52.5971 105.611 54.27C105.776 55.9008 106.455 56.7093 107.51 56.6026C108.737 56.4785 108.852 55.0761 109.049 53.4298C109.314 51.1993 109.89 48.8732 112.7 48.5885C115.236 48.3314 117.11 50.1956 117.442 53.4998C117.628 55.3423 117.317 56.7005 116.825 57.5414ZM101.833 42.3421C101.665 42.5619 100.606 42.1676 100.139 41.3563C99.8 40.7663 99.7635 39.9776 100.526 39.0457L101.969 37.2533L99.4786 32.921L97.1601 33.2787C96.0325 33.4886 95.3906 33.0977 95.062 32.5261C94.6172 31.7519 94.7811 30.6747 95.063 30.6101L107.894 28.5979C108.486 28.4767 109.021 28.6837 109.731 29.9185C110.441 31.1535 110.33 31.6844 109.93 32.1374L101.833 42.3421ZM101.817 32.2578L103.682 35.5019L107.07 31.3828L101.817 32.2578ZM93.4977 17.3174C93.6336 15.9333 92.9668 14.6607 91.818 13.8564C89.9392 12.5396 87.5972 13.0018 86.1131 15.1304C84.6423 17.241 85.0248 19.6642 86.9038 20.9808C88.2094 21.8952 89.7031 21.9813 90.8674 21.2395C90.9758 21.1591 92.2891 22.4692 91.4995 23.6032C91.1709 24.074 90.3605 24.493 89.2639 24.5814C88.5204 24.6064 87.6404 24.4571 86.7189 24.0707C86.3572 23.9211 85.9727 23.7292 85.6121 23.5032C85.8202 24.2461 85.8693 25.2149 85.2614 26.0875C84.3127 27.4481 82.7497 27.3135 81.5313 26.4599C80.3478 25.6313 80.0128 24.2538 80.5967 23.4166C80.9735 22.8759 81.5108 22.8107 81.918 23.0442C81.9745 23.4466 82.0726 24.0866 82.5594 24.4278C83.0812 24.7938 83.6345 24.8174 84.0113 24.2766C84.3759 23.7536 84.1467 22.6327 83.7549 21.9687C81.5937 19.5712 81.426 16.2078 83.4562 13.2945C85.8522 9.85794 89.9325 9.05583 93.3604 11.4576C94.8573 12.5061 95.6443 13.6808 95.9928 14.7038C96.3244 15.7148 96.217 16.5745 95.8886 17.0456C95.0988 18.1793 93.4715 17.4295 93.4977 17.3174ZM72.3296 14.4604C72.1665 15.469 71.5796 15.9124 70.7615 15.7802L70.511 15.7389C69.715 15.6102 69.518 15.3625 69.1692 14.7248L64.4451 5.36001L63.1957 13.1095C63.047 14.0342 62.5082 14.4427 61.6282 14.3001L61.3354 14.2524C60.4759 14.1133 60.1348 13.5623 60.2838 12.638L62.0274 1.82209C62.1868 0.834734 62.7568 0.366657 63.616 0.506061L63.9931 0.566917C64.7894 0.696134 65.038 1.01676 65.4212 1.70413L69.9626 10.737L71.1815 3.17619C71.3307 2.25183 71.8272 1.83684 72.7288 1.98241L73.0216 2.03039C73.8595 2.16578 74.2222 2.72044 74.0724 3.64453L72.3296 14.4604ZM51.0471 14.9025C50.3961 15.0963 49.6222 14.9489 48.8954 13.9891L47.4924 12.1648L42.7115 13.5867L42.5193 15.9298C42.4604 17.0788 41.9325 17.6136 41.3017 17.801C40.4471 18.0552 39.4405 17.6442 39.4435 17.3552L40.4729 4.37694C40.4932 3.77214 40.8175 3.2979 42.1809 2.89255C43.544 2.48694 44.033 2.71884 44.3789 3.21533L52.3972 13.48C52.5709 13.6945 51.9423 14.6363 51.0471 14.9025ZM42.9828 5.82728L42.611 11.1536L46.1916 10.0885L42.9828 5.82728ZM32.1255 23.093C31.5297 23.6378 31.2141 23.6378 30.4986 23.5139L20.2439 21.3923L25.5186 27.1982C26.1473 27.8901 26.131 28.5676 25.472 29.1697L25.2527 29.3697C24.6091 29.9574 23.9666 29.8823 23.3371 29.1901L15.9752 21.0875C15.3037 20.3481 15.2933 19.6095 15.9363 19.0222L16.2188 18.7637C16.8155 18.219 17.2208 18.2235 17.9963 18.3498L27.8779 20.4084L22.7322 14.7449C22.103 14.0524 22.0883 13.4039 22.7626 12.7876L22.9827 12.587C23.6105 12.0139 24.2688 12.075 24.8977 12.7669L32.2596 20.8695C32.9455 21.6247 32.9261 22.362 32.3142 22.9212L32.1255 23.093ZM19.0239 38.9865L18.8328 39.3669C18.4424 40.1462 17.797 40.3443 16.9629 39.9245L7.08368 34.9494C6.23037 34.5196 6.0233 33.8915 6.41345 33.1119L6.60426 32.7315C7.01359 31.9146 7.64038 31.7061 8.4937 32.1363L18.3721 37.1112C19.207 37.531 19.4333 38.1693 19.0239 38.9865ZM3.26962 53.6944L6.68021 54.1292L7.18948 50.1195C7.31793 49.1064 7.79522 48.7169 8.55286 48.8137L8.63734 48.8238C9.4584 48.9289 9.79925 49.4439 9.67346 50.4366L9.17805 54.341L12.946 54.8217C13.8934 54.9426 14.3184 55.4686 14.2031 56.3758L14.1415 56.8613C14.0344 57.7058 13.3439 58.0894 12.2491 57.9495L1.99658 56.6417C0.902629 56.5021 0.348589 55.8091 0.477305 54.796L1.36686 47.7893C1.49318 46.7977 1.95181 46.384 2.77288 46.4891L2.8992 46.5049C3.74078 46.6124 4.10295 47.1306 3.9769 48.1223L3.26962 53.6944ZM23.8498 58.7746L25.3425 58.1181V69.1669C25.3425 70.2647 25.4563 71.2985 25.6849 72.2534L21.8503 67.9212C19.2488 64.9813 20.261 60.3542 23.8498 58.7746ZM54.0007 68.4361V65.2859C54.0007 63.9782 54.4542 62.7005 55.3174 61.7206C56.6813 60.1732 58.6699 59.255 61.2285 59.255C65.3725 59.255 68.3604 62.4983 68.3604 67.0657C68.3604 71.725 65.4689 74.8764 61.132 74.8764C57.2783 74.8764 54.0007 72.1363 54.0007 68.4361ZM39.7307 73.3719C38.5923 74.1793 37.1932 74.6477 35.6054 74.6477C32.0877 74.6477 30.0645 72.4094 30.0645 68.6187V58.0216C30.0645 57.1819 29.8494 56.6356 29.4801 56.2981L81.7605 33.2955C86.894 31.0372 91.9051 36.6976 89.0571 41.5397L72.8332 69.1235C72.9318 68.4485 72.9856 67.7474 72.9856 67.0199C72.9856 60.0314 68.3596 55.5096 62.1436 55.5096C58.4338 55.5096 55.7838 57.0629 54.0009 59.6204C54.0009 59.1636 53.9045 58.5698 53.857 58.3417C53.4711 56.3318 52.1707 55.8297 51.0138 55.8297C50.0499 55.8297 49.2789 56.1954 49.2789 56.3318V84.8338C49.2789 86.478 50.1466 86.9801 51.3986 86.9801H51.9292C53.1346 86.9801 54.0489 86.478 54.0489 84.8338V74.5112C55.3494 76.7031 58.1446 78.6223 61.9997 78.6223C64.4389 78.6223 66.6125 77.9381 68.3692 76.7138L56.9348 96.1553C54.9446 99.5407 50.2412 99.9965 47.6392 97.058L30.8392 78.0765C31.8364 78.4014 32.9717 78.5757 34.2567 78.5757C37.8224 78.5757 40.3282 76.9779 41.9653 74.7394C41.9653 75.2868 42.0625 75.7444 42.1593 76.1554C42.6406 77.8001 43.8457 78.2108 45.0014 78.2108C45.9168 78.2108 46.6878 77.8454 46.6878 77.7081V58.0216C46.6878 56.3318 45.8204 55.8297 44.5681 55.8297H44.0375C42.8332 55.8297 41.9653 56.3782 41.9653 58.0216V68.9552C41.9653 70.7001 41.1509 72.3631 39.7307 73.3719ZM6.42064 67.8498C6.94297 67.7563 7.44611 68.1037 7.54098 68.6302C12.0306 93.5187 33.6302 111.583 58.8999 111.583C82.8872 111.583 103.707 95.3136 109.531 72.0191C109.66 71.5006 110.184 71.1843 110.701 71.3165C111.218 71.4457 111.532 71.9711 111.402 72.4896C105.362 96.6462 83.7738 113.518 58.8999 113.518C32.6961 113.518 10.2981 94.7846 5.64275 68.9739C5.54761 68.4487 5.89592 67.9453 6.42064 67.8498Z" fill="#222325"/>
</g>
<defs>
<clipPath id="clip0_1222_1858">
<rect width="117.257" height="113.4" fill="white" transform="translate(0.371094 0.285645)"/>
</clipPath>
</defs>
</svg>
