<svg width="390" height="100" viewBox="0 0 390 100" fill="none" xmlns="http://www.w3.org/2000/svg">
<g clip-path="url(#clip0_682_842)">
<path d="M271.901 74.6C271.901 73.7 272.201 72.3 272.701 70.6C273.201 68.5 273.601 67 273.601 66C273.601 63.6 272.101 62.1 270.001 62.1C267.301 62.1 265.601 63.5 264.201 66L262.101 75.8C262.001 76.4 261.601 76.6 261.201 76.6H261.001C260.601 76.6 260.301 76.5 260.501 75.8L262.301 67.2C263.001 64.2 261.301 62.1 258.901 62.1C256.301 62.1 254.701 63.4 253.101 65.9L251.001 75.8C250.901 76.4 250.501 76.6 250.101 76.6H250.001C249.601 76.6 249.301 76.4 249.501 75.8L252.701 60.9C252.701 60.9 252.801 60.8 253.001 60.8C253.601 60.8 254.101 61.1 253.901 62.5C253.801 62.9 253.701 63.3 253.701 63.6C255.001 61.7 257.001 60.5 259.201 60.5C261.701 60.5 263.601 62 264.001 64.3C265.201 62.1 267.301 60.5 270.301 60.5C273.301 60.5 275.401 62.6 275.401 65.6C275.401 66.7 275.001 68.4 274.401 70.6C273.901 72.3 273.601 73.6 273.601 74.2C273.601 75.2 274.201 75.4 275.101 75.5C275.101 75.5 275.201 76.6 274.101 76.6C272.701 76.8 271.901 76 271.901 74.6Z" fill="black"/>
<path d="M278 70.2C278 65.4 281.3 60.7 286.6 60.7C289.7 60.7 291.8 62.5 292.5 64.5L292.9 62.5C293.2 61.3 293.5 60.9 294.2 60.9C294.5 60.9 294.8 61.1 294.8 61.1L292.2 73.4C291.8 75.2 292.4 75.6 293.6 75.6C293.6 75.6 293.8 76.7 292.5 76.7C291.3 76.7 290.4 76 290.4 74.5C290.4 74.2 290.4 73.9 290.5 73.3C289.1 75.6 286.8 76.8 284.4 76.8C280.9 76.9 278 74.5 278 70.2ZM291.4 69.6L292 66.8C291.4 64.1 289.6 62.1 286.5 62.1C282.3 62.1 279.6 66.2 279.6 70.2C279.6 73.5 281.8 75.5 284.6 75.5C288 75.5 290.8 72.7 291.4 69.6Z" fill="black"/>
<path d="M296.201 75.9L299.401 61C299.401 61 299.501 60.9 299.701 60.9C300.301 60.9 300.801 61.2 300.601 62.6L300.301 64.2C301.401 61.8 302.901 60.7 304.901 60.7C306.201 60.7 307.201 61.3 307.201 62C307.201 62.8 306.601 63 306.501 63C306.101 62.5 305.501 62.1 304.401 62.1C301.801 62.1 300.101 65.1 299.101 69.6L297.801 75.8C297.701 76.4 297.401 76.6 297.101 76.6H296.901C296.401 76.7 296.001 76.5 296.201 75.9Z" fill="black"/>
<path d="M320.6 61.5C320.6 61.8 320.4 62.2 319.8 62.7L311.9 68.5L315.6 73.3C317 75.3 317.5 75.4 318.8 75.4C318.8 75.4 319 76.7 317.6 76.7C316.5 76.7 315.9 76.2 314.2 73.7L310.2 68.4L308.6 75.8C308.5 76.4 308.2 76.6 307.9 76.6H307.7C307.3 76.6 306.9 76.4 307 75.8L311.4 55C311.5 54.4 311.7 54.2 312.1 54.2H312.3C312.7 54.2 313.1 54.4 313 55L310.2 68.1L319.9 60.7C319.9 60.7 320.6 60.9 320.6 61.5Z" fill="black"/>
<path d="M321.301 70.6C321.301 65.1 325.501 60.7 331.001 60.7C334.401 60.7 336.401 62.4 336.401 64.6C336.401 67.4 334.501 69.3 327.401 69.3C326.101 69.3 324.701 69.2 323.101 69.1C323.001 69.6 323.001 70.1 323.001 70.5C323.001 73.5 324.701 75.5 328.101 75.5C330.601 75.5 332.301 74.5 333.501 72.8C333.601 72.7 334.301 73 334.301 73.6C334.301 74 334.101 74.3 333.501 74.9C332.201 76.2 330.401 76.9 327.901 76.9C323.601 76.9 321.301 74.3 321.301 70.6ZM327.201 68C333.201 68 334.701 66.3 334.701 64.6C334.701 63.3 333.401 62 330.801 62C327.301 62 324.301 64.5 323.301 67.7C324.801 68 326.101 68 327.201 68Z" fill="black"/>
<path d="M339.302 71.4L341.202 62.4H339.302C338.802 62.4 338.602 62.3 338.602 62C338.602 61.8 338.702 61.3 338.902 61.1C339.002 61 339.202 60.9 339.502 60.9H341.502L342.002 58.7C342.202 57.5 342.602 57.1 343.302 57.1C343.602 57.1 343.902 57.3 343.902 57.3L343.102 60.9H347.402C347.902 60.9 348.102 61 348.102 61.3C348.102 61.5 348.002 62 347.802 62.1C347.702 62.2 347.502 62.3 347.202 62.3H342.802L340.902 71.3C340.302 74.2 341.202 75.4 343.102 75.4C344.102 75.4 344.902 74.9 345.302 74.4C345.402 74.4 345.702 74.7 345.702 75.2C345.702 75.5 345.602 75.8 345.302 76C344.802 76.5 343.902 76.8 342.802 76.8C340.102 76.9 338.602 75 339.302 71.4Z" fill="black"/>
<path d="M349.001 73.5L351.501 61.7C351.601 61.1 351.802 60.9 352.202 60.9H352.401C352.801 60.9 353.201 61.1 353.101 61.7L350.601 73.4C350.201 75.2 350.801 75.6 352.101 75.6C352.101 75.6 352.201 76.7 351.001 76.7C349.401 76.8 348.501 75.7 349.001 73.5ZM352.401 56.3C352.401 55.7 352.801 55.1 353.601 55.1C354.301 55.1 354.601 55.5 354.601 56.1C354.601 56.7 354.301 57.4 353.401 57.4C352.801 57.3 352.401 56.9 352.401 56.3Z" fill="black"/>
<path d="M368.601 76.8C367.501 76.8 366.601 76 366.601 74.6C366.601 73.7 366.901 72.3 367.401 70.6C367.901 68.6 368.301 67.1 368.301 66.1C368.301 63.6 366.801 62.2 364.401 62.2C361.601 62.2 359.901 63.7 358.401 66.3L356.401 75.9C356.301 76.5 356.001 76.7 355.701 76.7H355.501C355.101 76.7 354.701 76.5 354.801 75.9L358.001 61C358.001 61 358.101 60.9 358.301 60.9C358.901 60.9 359.401 61.2 359.201 62.6C359.101 63.1 359.001 63.6 358.901 64.1C360.201 62 362.201 60.7 364.701 60.7C368.001 60.7 370.001 62.8 370.001 65.9C370.001 67.1 369.601 68.8 369.101 70.9C368.601 72.6 368.301 73.9 368.301 74.5C368.301 75.5 368.901 75.7 369.701 75.8C369.701 75.7 369.801 76.8 368.601 76.8Z" fill="black"/>
<path d="M372.803 81.1C372.003 80.3 371.703 79.4 371.703 79C371.703 78 372.803 77.8 372.803 77.9C373.303 80 375.003 81.7 378.503 81.7C381.803 81.7 383.903 79.9 384.703 76.1L385.303 73.2C384.003 75.2 381.903 76.5 379.303 76.5C375.903 76.5 372.803 74.1 372.803 69.7C372.803 65.2 376.403 60.8 381.303 60.8C384.403 60.8 386.503 62.6 387.203 64.6L387.603 62.6C387.803 61.4 388.203 61 388.803 61C389.103 61 389.403 61.2 389.403 61.2L386.203 76.2C385.203 80.6 382.703 83.1 378.303 83.1C375.603 83 373.803 82.1 372.803 81.1ZM386.103 69.6L386.703 66.7C386.203 64 384.203 62 381.203 62C377.203 62 374.403 65.7 374.403 69.5C374.403 72.9 376.803 74.9 379.503 74.9C382.803 75 385.503 72.6 386.103 69.6Z" fill="black"/>
<path d="M234.398 99.8C234.098 99.8 233.898 99.6 233.898 99.3V38.3C233.898 38 234.098 37.8 234.398 37.8C234.698 37.8 234.898 38 234.898 38.3V99.3C234.898 99.5 234.698 99.8 234.398 99.8Z" fill="black"/>
<path d="M7.09957 52.2V36.4L4.99957 37.3C-0.200433 39.6 -1.60043 46.2 2.09957 50.4L7.59957 56.6C7.29957 55.3 7.09957 53.8 7.09957 52.2Z" fill="black"/>
<path d="M88.3 0.700006L13 33.7C13.5 34.2 13.8 35 13.8 36.2V51.4C13.8 56.8 16.7 60.1 21.8 60.1C24.1 60.1 26.1 59.4 27.7 58.3C29.7 56.9 30.9 54.5 30.9 52V36.2C30.9 33.8 32.1 33.1 33.9 33.1H34.7C36.5 33.1 37.8 33.8 37.8 36.2V64.5C37.8 64.7 36.7 65.2 35.4 65.2C33.7 65.2 32 64.6 31.3 62.2C31.2 61.6 31 61 31 60.2C28.6 63.4 25 65.7 19.9 65.7C18.1 65.7 16.4 65.4 15 65L39.2 92.3C42.9 96.5 49.7 95.9 52.6 91L69.1 63.1C66.6 64.9 63.4 65.8 59.9 65.8C54.4 65.8 50.3 63 48.5 59.9V74.7C48.5 77.1 47.2 77.8 45.4 77.8H44.6C42.8 77.8 41.5 77.1 41.5 74.7V33.8C41.5 33.6 42.6 33.1 44 33.1C45.7 33.1 47.5 33.8 48.1 36.7C48.2 37 48.3 37.9 48.3 38.5C50.9 34.8 54.7 32.6 60 32.6C68.9 32.6 75.6 39.1 75.6 49.1C75.6 50.1 75.5 51.1 75.4 52.1L98.8 12.5C102.9 5.60001 95.7 -2.49999 88.3 0.700006Z" fill="black"/>
<path d="M50.2984 41.5C49.0984 42.9 48.3984 44.7 48.3984 46.6V51.1C48.3984 56.4 53.0984 60.3 58.6984 60.3C64.8984 60.3 69.0984 55.8 69.0984 49.1C68.9984 42.7 64.6984 38 58.7984 38C55.0984 38 52.1984 39.3 50.2984 41.5Z" fill="black"/>
<path d="M92.9 63.3C92.9 61.2 92.1 59.1 90.5 57.6C88.8 56 86.4 55.1 83.4 55.1C77.6 55.1 73.8 59.2 73.8 65.5C73.8 71.6 77.8 75.9 83.3 75.9C88.4 75.9 92.9 72.3 92.9 67.3V63.3ZM67.5 65.5C67.5 56.3 73.6 50.1 82.2 50.1C87.2 50.1 91 52.3 92.8 54.9V39C92.8 38.8 93.9 38.3 95.1 38.3C97.1 38.3 99.1 39.3 99.1 43.5V77.5C99.1 79.7 97.9 80.4 96.3 80.4H95.7C94 80.4 92.9 79.7 92.9 77.5V75.3C90.5 78.8 86.9 81 82 81C73.7 80.9 67.5 74.7 67.5 65.5Z" fill="black"/>
<path d="M102.898 53.5C102.898 51.3 104.098 50.6 105.798 50.6H106.398C108.098 50.6 109.198 51.3 109.198 53.5V77.5C109.198 79.7 107.998 80.4 106.398 80.4H105.798C104.098 80.4 102.898 79.7 102.898 77.5V53.5ZM106.298 38C108.698 38 109.998 39.3 109.998 41.5C109.998 43.7 108.598 45 106.198 45C103.798 45 102.398 43.7 102.398 41.5C102.398 39.3 103.798 38 106.298 38Z" fill="black"/>
<path d="M133.501 61.1C133.501 57.2 130.501 54.5 126.201 54.5C122.001 54.5 119.101 57.2 119.101 61.1C119.101 65.1 122.101 67.7 126.401 67.7C130.601 67.7 133.501 65 133.501 61.1ZM136.101 84.2C136.101 81.9 133.201 81 129.801 80.2L126.601 79.5C121.301 79.8 117.001 81.6 117.001 84.7C117.001 87.3 120.101 88.8 126.301 88.8C132.401 88.7 136.101 87.1 136.101 84.2ZM110.801 84.8C110.801 80.5 115.001 77.7 120.601 76.8C119.801 76.2 119.401 75.3 119.401 74.1C119.401 72.9 120.101 71.8 121.101 70.9C116.101 69.4 113.001 65.7 113.001 61.2C113.001 55.1 118.601 50.1 126.201 50.1C128.901 50.1 131.501 50.8 133.601 51.9L135.301 49.1C136.301 47.5 137.401 46.8 139.001 46.8C141.401 46.8 142.501 49.2 142.301 49.4L137.001 54.6C138.701 56.4 139.701 58.7 139.701 61.1C139.701 67.2 134.201 71.7 126.301 71.7H125.101C124.801 72.1 124.801 72.4 124.801 72.7C124.801 74.6 127.801 74.8 133.201 76C137.601 77.1 142.201 79.2 142.201 84C142.201 89.5 136.201 92.9 126.001 92.9C115.601 92.9 110.801 90.3 110.801 84.8Z" fill="black"/>
<path d="M143.702 53.5C143.702 51.3 144.902 50.6 146.602 50.6H147.202C148.902 50.6 150.002 51.3 150.002 53.5V77.5C150.002 79.7 148.802 80.4 147.202 80.4H146.602C144.902 80.4 143.702 79.7 143.702 77.5V53.5ZM147.002 38C149.402 38 150.702 39.3 150.702 41.5C150.702 43.7 149.302 45 146.902 45C144.502 45 143.102 43.7 143.102 41.5C143.202 39.3 144.602 38 147.002 38Z" fill="black"/>
<path d="M157.398 71.2V55.8H155.198C153.198 55.8 152.398 55 152.398 53.6V53.2C152.398 51.7 153.198 51 155.198 51H157.398V46.5C157.398 44.4 158.498 43.6 160.198 43.6H160.798C162.498 43.6 163.598 44.2 163.598 46.5V51H170.598C172.598 51 173.298 51.7 173.298 53.2V53.6C173.298 55.1 172.498 55.9 170.498 55.9H163.498V70.7C163.498 74.3 164.598 76.1 167.598 76.1C168.898 76.1 169.998 75.7 170.798 75.1C171.998 74.2 173.698 75 173.698 76.5C173.698 76.5 173.698 76.5 173.698 76.6C173.698 77.6 173.298 78.5 172.398 79.3C171.198 80.3 169.198 81.1 166.598 81.1C160.298 80.9 157.398 77.5 157.398 71.2Z" fill="black"/>
<path d="M196.7 66.3L195 66.4C186 66.7 181.4 68.3 181.4 72.2C181.4 74.8 183.6 76.5 187.3 76.5C192.8 76.5 196.8 73.2 196.8 68.6V66.3H196.7ZM195.9 62.5H196.7V61.9C196.7 57.5 194 55 189 55C185.2 55 182.7 56.5 181.1 58.5C180.1 59.8 178.2 60.1 177 59C176.5 58.6 176.2 58 176.2 57.1C176.2 56 176.9 54.7 178.3 53.5C180.4 51.7 184.2 50.2 189.4 50.2C198.1 50.2 202.9 54.5 202.9 61.9V79.8C202.9 80.1 201.7 80.5 200.6 80.5C198.9 80.5 197.5 79.8 196.9 77.8C196.8 77.3 196.6 76.6 196.6 75.8C194.2 79 190.2 80.8 185.5 80.8C178.9 80.8 175 77.5 175 72.5C175.1 65.7 182 62.8 195.9 62.5Z" fill="black"/>
<path d="M206.699 77.5V39C206.699 38.8 207.799 38.3 208.999 38.3C210.999 38.3 213.099 39.3 213.099 43.5V77.5C213.099 79.7 211.899 80.4 210.299 80.4H209.699C207.999 80.3 206.699 79.7 206.699 77.5Z" fill="black"/>
<path d="M143.602 97.7C143.602 97.1 144.402 96.6 144.502 96.7C145.202 97.7 146.502 98.5 148.302 98.5C150.002 98.5 151.002 97.8 151.002 96.7C151.002 95.4 149.502 95.1 147.902 94.7C146.002 94.3 144.002 93.6 144.002 91.3C144.002 89.3 145.802 87.9 148.502 87.9C150.102 87.9 151.302 88.3 152.002 88.9C152.502 89.3 152.802 89.7 152.802 90C152.802 90.7 151.902 91.1 151.902 91C151.202 90.1 150.002 89.4 148.602 89.4C147.002 89.4 146.002 90.1 146.002 91.2C146.002 92.5 147.202 92.7 148.902 93.1C151.002 93.6 153.102 94.3 153.102 96.6C153.102 98.8 151.302 100.1 148.402 100.1C146.502 100.1 145.102 99.5 144.402 98.9C143.902 98.4 143.602 98 143.602 97.7Z" fill="black"/>
<path d="M155.801 98.7V89C155.801 88.4 156.201 87.9 156.901 87.9H164.101C164.701 87.9 165.001 88.2 165.001 88.7V88.8C165.001 89.3 164.701 89.6 164.101 89.6H157.801V93H162.701C163.301 93 163.601 93.3 163.601 93.7V93.8C163.601 94.3 163.301 94.6 162.701 94.6H157.801V98.2H164.201C164.801 98.2 165.101 98.5 165.101 98.9V99C165.101 99.5 164.801 99.8 164.201 99.8H156.901C156.201 99.8 155.801 99.4 155.801 98.7Z" fill="black"/>
<path d="M172.5 98.3C174.5 98.3 175.3 97.7 175.3 96.4C175.3 95.2 174.4 94.5 172.5 94.5H169.4V98.3H172.5ZM172.4 93.1C173.9 93.1 174.8 92.4 174.8 91.2C174.8 90 174 89.4 172.4 89.4H169.5V93H172.4V93.1ZM167.5 98.7V89C167.5 88.4 167.9 87.9 168.6 87.9H172.7C175.4 87.9 176.9 89 176.9 91C176.9 92.3 176.1 93.1 174.7 93.5C176.5 93.9 177.4 95 177.4 96.4C177.4 98.6 175.9 99.7 172.7 99.7H168.6C167.9 99.8 167.5 99.3 167.5 98.7Z" fill="black"/>
<path d="M184.702 93.7C186.502 93.7 187.402 92.9 187.402 91.6C187.402 90.2 186.502 89.5 184.602 89.5H182.002V93.7H184.702ZM180.102 98.9V89C180.102 88.4 180.502 87.9 181.202 87.9H184.702C187.702 87.9 189.402 89.1 189.402 91.4C189.402 93.2 188.402 94.4 186.502 94.8C186.202 94.9 186.002 94.9 185.702 94.9L189.302 99C189.402 99.1 189.002 99.8 188.102 99.8C187.602 99.8 187.202 99.6 186.802 99.1L183.402 95.1H182.002V99C182.002 99.5 181.702 99.9 181.102 99.9H181.002C180.402 99.8 180.102 99.5 180.102 98.9Z" fill="black"/>
<path d="M199 94.8L197 89.8L195 94.8H199ZM191.3 99.3L195.7 88.5C195.9 88.1 196.2 87.9 197.1 87.9C198 87.9 198.3 88.1 198.5 88.5L203 99.3C203.1 99.4 202.5 99.9 201.9 99.9C201.5 99.9 201 99.7 200.7 99L199.6 96.3H194.6L193.5 99C193.2 99.7 192.8 99.9 192.4 99.9C191.8 99.9 191.2 99.5 191.3 99.3Z" fill="black"/>
<path d="M205.102 98.7V89C205.102 88.4 205.502 87.9 206.202 87.9H213.402C214.002 87.9 214.302 88.2 214.302 88.7V88.8C214.302 89.3 214.002 89.6 213.402 89.6H207.102V93H212.002C212.602 93 212.902 93.3 212.902 93.7V93.8C212.902 94.3 212.602 94.6 212.002 94.6H207.102V98.2H213.502C214.102 98.2 214.402 98.5 214.402 98.9V99C214.402 99.5 214.102 99.8 213.502 99.8H206.202C205.502 99.8 205.102 99.4 205.102 98.7Z" fill="black"/>
</g>
<defs>
<clipPath id="clip0_682_842">
<rect width="389.5" height="100" fill="white"/>
</clipPath>
</defs>
</svg>
