<svg width="84" height="91" viewBox="0 0 84 91" fill="none" xmlns="http://www.w3.org/2000/svg">
<path d="M42.0004 17.5C36.2012 17.5 31.5003 22.201 31.5003 28V49C31.5003 54.7992 36.2012 59.5 42.0004 59.5C47.7992 59.5 52.5004 54.7992 52.5004 49V28C52.5004 22.201 47.7992 17.5 42.0004 17.5ZM42.0004 10.5C51.6653 10.5 59.5004 18.335 59.5004 28V49C59.5004 58.6649 51.6653 66.5 42.0004 66.5C32.3353 66.5 24.5003 58.6649 24.5003 49V28C24.5003 18.335 32.3353 10.5 42.0004 10.5ZM7.67334 55.8653L14.5387 54.4922C17.0912 67.3263 28.4161 77 42.0004 77C55.5846 77 66.9092 67.3263 69.4617 54.4922L76.3273 55.8653C73.1364 71.9082 58.9806 84 42.0004 84C25.02 84 10.864 71.9082 7.67334 55.8653Z" fill="#222325"/>
<circle cx="73" cy="5" r="5" fill="#222325"/>
</svg>
