<svg width="285" height="279" viewBox="0 0 285 279" fill="none" xmlns="http://www.w3.org/2000/svg">
<path d="M18.3489 107.564C19.2176 107.835 19.8778 108.774 19.5441 109.843C19.2105 110.912 18.1333 111.309 17.2646 111.038C16.3959 110.767 15.7358 109.828 16.0694 108.759C16.403 107.69 17.4803 107.292 18.3489 107.564Z" fill="#1EFF9D"/>
<path d="M27.5118 89.6676L28.3657 88.0922C29.2396 88.5658 29.6982 88.3367 30.2653 87.2905C30.7457 86.4043 30.7412 85.9719 30.1627 85.6584C29.7934 85.4582 29.5056 85.6366 28.553 86.219L26.7759 87.2941C25.7786 87.9001 24.9276 88.0599 23.9676 87.5395C22.6137 86.8056 22.3468 85.5941 23.4543 83.5509C24.5751 81.4831 25.7667 81.2532 27.4283 82.1538L26.5743 83.7293C25.8112 83.3156 25.3347 83.5191 24.8943 84.3315C24.454 85.1438 24.4082 85.5808 24.9375 85.8677C25.2329 86.0278 25.495 85.8673 26.1343 85.4813L27.9816 84.3647C29.1128 83.6879 29.9633 83.3527 31.0833 83.9598C32.4742 84.7137 32.8595 85.9417 31.7054 88.0711C30.5512 90.2004 29.1242 90.5416 27.5118 89.6676Z" fill="#1EFF9D"/>
<path d="M39.3165 64.5023L45.6002 67.1429L44.4388 68.634L42.341 67.7276L40.0699 70.6434L41.4623 72.4555L40.3009 73.9466L36.2023 68.5006C35.0786 67.0043 34.6199 66.2034 35.6608 64.8669C36.7018 63.5305 37.5906 63.7791 39.3165 64.5023ZM37.3783 67.1274L39.0112 69.2687L40.7403 67.0487L38.273 65.9787C37.4727 65.6393 37.2615 65.5458 36.9862 65.8992C36.711 66.2527 36.8533 66.4345 37.3783 67.1274Z" fill="#1EFF9D"/>
<path d="M53.3632 56.3194L48.2908 50.9039L49.66 49.6215L54.3974 54.6793C54.5984 54.8939 54.7765 54.8997 54.9911 54.6988L57.4536 52.3923L58.6499 53.6695L55.7378 56.3971C54.8795 57.201 54.1671 57.1777 53.3632 56.3194Z" fill="#1EFF9D"/>
<path d="M70.3108 36.4726L75.4757 40.9202L73.9116 41.9811L72.1949 40.4726L69.1361 42.5473L69.9027 44.7001L68.3385 45.761L66.1165 39.3174C65.5083 37.5477 65.3186 36.6445 66.7205 35.6936C68.1225 34.7427 68.8915 35.253 70.3108 36.4726ZM67.6583 38.3732L68.5523 40.9133L70.8811 39.3337L68.8633 37.5559C68.2064 36.9864 68.0343 36.8325 67.6635 37.084C67.2928 37.3354 67.3722 37.5523 67.6583 38.3732Z" fill="#1EFF9D"/>
<path d="M95.7295 28.7352L93.7534 23.3461C93.3485 22.242 93.6482 21.5953 94.7523 21.1904L95.8433 20.7904C98.5641 19.7927 100.13 20.0384 101.094 22.6673L101.769 24.5075C102.637 26.8734 101.697 28.3364 98.9761 29.3341L97.8851 29.7341C96.781 30.139 96.1343 29.8393 95.7295 28.7352ZM98.3736 27.6911C100.096 27.0597 100.413 26.4213 99.9553 25.1726L99.2805 23.3324C98.8227 22.0837 98.1676 21.802 96.4457 22.4334L95.9331 22.6213C95.6571 22.7226 95.5822 22.8842 95.6834 23.1603L97.3221 27.6293C97.4233 27.9053 97.585 27.9802 97.861 27.879L98.3736 27.6911Z" fill="#1EFF9D"/>
<path d="M117.855 20.0734L118.151 21.6561C118.205 21.9451 118.352 22.0458 118.641 21.9918L122.577 21.2567L122.898 22.9769L118.356 23.8252C117.2 24.0411 116.612 23.6382 116.396 22.4822L115.343 16.8398C115.127 15.6837 115.53 15.0958 116.686 14.8799L121.227 14.0316L121.548 15.7519L117.612 16.487C117.323 16.541 117.223 16.688 117.277 16.977L117.534 18.3532L121.332 17.6437L121.653 19.364L117.855 20.0734Z" fill="#1EFF9D"/>
<path d="M151.166 21.6157L149.24 18.0987L148.191 18.0461L148.02 21.4578L146.146 21.3637L146.518 13.953C146.577 12.7785 147.106 12.3004 148.28 12.3594L150.434 12.4675C152.587 12.5756 153.396 13.7797 153.31 15.4855C153.242 16.8278 152.618 17.8198 151.217 18.0858L153.291 21.7224L151.166 21.6157ZM150.346 14.2153L148.808 14.1381C148.514 14.1233 148.382 14.2429 148.367 14.5365L148.276 16.3542L150.234 16.4525C151.072 16.4946 151.4 16.1046 151.436 15.3915C151.472 14.6783 151.185 14.2574 150.346 14.2153Z" fill="#1EFF9D"/>
<path d="M169.836 20.2863L169.492 21.8592C169.429 22.1464 169.525 22.2964 169.813 22.3592L173.724 23.2142L173.35 24.9238L168.837 23.9372C167.688 23.6861 167.303 23.0861 167.555 21.9373L168.78 16.3296C169.031 15.1808 169.631 14.796 170.78 15.0471L175.294 16.0337L174.92 17.7433L171.008 16.8883C170.721 16.8255 170.571 16.9217 170.508 17.2089L170.209 18.5767L173.984 19.4018L173.611 21.1114L169.836 20.2863Z" fill="#1EFF9D"/>
<path d="M189.125 26.4225L191.365 20.9557L193.101 21.6671L190.86 27.1338C190.404 28.2479 190.911 28.8943 191.921 29.3084C192.919 29.7172 193.733 29.6123 194.19 28.4982L196.43 23.0315L198.166 23.7428L195.926 29.2096C195.002 31.4637 193.214 31.7294 191.257 30.9277C189.288 30.1208 188.201 28.6765 189.125 26.4225Z" fill="#1EFF9D"/>
<path d="M208.271 39.1519L212.11 33.1656C212.995 31.7868 213.769 31.6683 214.913 32.4015C215.879 33.0213 216.087 33.604 215.64 34.8974L213.699 40.621C213.617 40.8516 213.646 40.9365 213.752 41.0045C213.893 41.0952 213.974 41.0472 214.14 40.788L218.086 34.6367L219.618 35.6193L215.778 41.6056C214.886 42.9961 214.119 43.1029 213.035 42.4075C212.022 41.7575 211.832 41.12 212.267 39.8191L214.149 34.2402C214.256 33.9432 214.266 33.8498 214.125 33.7591C213.972 33.6608 213.915 33.724 213.733 34.0068L209.803 40.1345L208.271 39.1519Z" fill="#1EFF9D"/>
<path d="M225.234 51.3323L231.159 44.4257L232.583 45.6472L226.658 52.5538L225.234 51.3323Z" fill="#1EFF9D"/>
<path d="M244.468 61.1058L240.755 66.822L239.494 65.4148L240.758 63.5108L238.29 60.7588L236.26 61.808L234.999 60.4008L241.085 57.3323C242.757 56.4916 243.626 56.1821 244.757 57.4434C245.888 58.7047 245.486 59.5354 244.468 61.1058ZM242.228 58.7331L239.831 59.9605L241.71 62.0558L243.2 59.8172C243.676 59.0897 243.805 58.8984 243.506 58.5649C243.207 58.2313 243.003 58.3391 242.228 58.7331ZM243.565 55.1278C244.513 54.2774 245.348 54.2436 246.058 55.0359C246.703 55.7551 246.496 56.6361 246.795 56.9697C247.057 57.2616 247.346 57.0592 247.606 56.8256L248.345 57.6491C247.406 58.4902 246.561 58.5333 245.851 57.7411C245.206 57.0218 245.413 56.1408 245.114 55.8072C244.852 55.5153 244.574 55.7084 244.303 55.9513L243.565 55.1278Z" fill="#1EFF9D"/>
<path d="M255.218 81.1059L256.883 80.072C257.977 79.3926 258.405 78.781 257.519 77.3537C256.632 75.9265 255.894 76.0386 254.8 76.718L253.135 77.7519C252.041 78.4313 251.613 79.0429 252.499 80.4702C253.385 81.8974 254.123 81.7853 255.218 81.1059ZM251.013 81.3933C249.388 78.7766 250.306 77.2835 252.138 76.1462L253.803 75.1123C255.635 73.975 257.381 73.814 259.005 76.4306C260.63 79.0473 259.711 80.5404 257.88 81.6777L256.215 82.7116C254.383 83.8489 252.637 84.0099 251.013 81.3933Z" fill="#1EFF9D"/>
<path d="M267.508 105.299C266.653 105.609 265.558 105.261 265.177 104.208C264.795 103.155 265.412 102.187 266.268 101.877C267.123 101.567 268.217 101.915 268.599 102.968C268.981 104.021 268.364 104.989 267.508 105.299Z" fill="#1EFF9D"/>
</svg>
