<svg 
 xmlns="http://www.w3.org/2000/svg"
 xmlns:xlink="http://www.w3.org/1999/xlink"
 width="97px" height="48px">
<path fill-rule="evenodd"  fill="rgb(34, 35, 37)"
 d="M57.998,20.642 C57.851,21.297 57.506,21.749 57.013,22.002 C56.572,22.204 56.129,22.304 55.685,22.304 C55.490,22.354 55.293,22.354 55.045,22.354 L53.374,22.354 L54.111,18.779 L55.685,18.779 L55.932,18.779 C56.669,18.779 57.210,18.930 57.604,19.233 C57.998,19.534 58.095,19.987 57.998,20.642 M60.703,31.668 C60.654,31.266 60.654,30.811 60.654,30.309 C60.703,29.805 60.753,29.201 60.801,28.647 C60.949,27.439 60.900,26.331 60.753,25.375 C60.556,24.368 59.720,23.814 58.195,23.764 C59.277,23.562 60.260,23.210 61.096,22.606 C61.687,22.204 62.080,21.699 62.425,20.995 C62.572,20.592 62.719,20.189 62.818,19.686 C63.064,18.528 62.916,17.621 62.425,16.967 C62.228,16.716 61.933,16.514 61.637,16.363 C60.161,15.658 58.883,15.558 57.309,15.507 L55.685,15.507 L50.275,15.507 L46.979,31.618 L51.456,31.618 L52.734,25.527 L54.751,25.527 C55.144,25.527 55.490,25.576 55.685,25.727 C55.981,25.928 56.129,26.181 56.178,26.583 C56.227,27.289 56.227,28.093 56.129,28.949 C56.030,29.503 55.932,30.108 55.883,30.662 C55.833,31.064 55.833,31.366 55.883,31.618 L60.703,31.668 ZM29.371,39.471 L58.981,39.471 L59.915,34.739 L30.305,34.739 L29.371,39.471 ZM27.796,47.124 L57.407,47.124 L58.391,42.392 L28.780,42.392 L27.796,47.124 ZM15.107,20.240 C15.353,18.831 15.205,17.672 14.566,16.716 C13.927,15.759 12.353,15.256 9.794,15.155 C7.975,15.155 6.303,15.558 4.777,16.413 C3.254,17.270 2.319,18.478 2.022,20.240 C1.826,21.650 2.122,22.707 2.859,23.362 C3.598,24.066 5.073,24.720 7.385,25.174 C8.025,25.324 8.614,25.475 8.959,25.778 C9.303,26.080 9.500,26.381 9.548,26.735 C9.548,26.885 9.597,27.036 9.548,27.187 C9.451,27.540 9.204,27.892 8.712,28.245 C8.221,28.547 7.631,28.698 6.843,28.698 C6.106,28.698 5.613,28.547 5.318,28.245 C5.024,27.943 4.877,27.640 4.827,27.289 C4.777,26.985 4.827,26.684 4.877,26.432 L0.450,26.432 C0.154,28.245 0.499,29.654 1.433,30.611 C2.367,31.517 4.039,32.020 6.352,32.020 C8.221,32.020 9.942,31.567 11.467,30.762 C12.942,29.906 13.927,28.547 14.319,26.633 C14.615,25.123 14.319,24.016 13.435,23.362 C12.549,22.707 11.565,22.204 10.385,21.901 C10.040,21.851 9.697,21.749 9.351,21.699 C8.959,21.599 8.663,21.549 8.319,21.497 C7.729,21.397 7.336,21.247 7.040,20.944 C6.794,20.642 6.646,20.340 6.695,19.987 C6.695,19.937 6.695,19.888 6.746,19.837 C6.794,19.534 7.040,19.183 7.433,18.930 C7.876,18.629 8.368,18.478 8.959,18.478 C9.597,18.478 10.090,18.629 10.385,18.981 C10.631,19.283 10.730,19.736 10.631,20.240 L15.107,20.240 ZM31.191,16.665 L31.436,15.507 L31.191,15.507 L19.387,15.507 L16.090,31.618 L28.142,31.618 L28.780,28.496 L21.206,28.496 L21.845,25.324 L28.878,25.324 L29.568,22.002 L22.534,22.002 L23.173,18.779 L30.748,18.779 L31.191,16.665 ZM38.077,18.679 L38.471,18.679 L40.291,18.679 C40.881,18.679 41.323,18.831 41.570,19.132 C41.865,19.434 41.962,19.787 41.865,20.240 C41.765,20.793 41.519,21.196 41.176,21.449 C40.831,21.699 40.339,21.851 39.651,21.851 L38.471,21.851 L37.438,21.851 L38.077,18.679 ZM36.749,25.174 L38.471,25.174 L39.306,25.174 C39.798,25.174 40.193,25.274 40.437,25.527 C40.881,26.028 40.979,26.633 40.733,27.289 C40.585,27.590 40.339,27.842 39.995,28.143 C39.601,28.395 39.111,28.496 38.471,28.496 L36.060,28.496 L36.749,25.174 ZM38.471,15.507 L34.241,15.507 L31.191,30.460 L30.945,31.618 L31.191,31.618 L37.978,31.668 L38.471,31.668 C40.389,31.618 41.913,31.266 43.045,30.662 C44.274,30.006 45.061,28.848 45.405,27.289 C45.651,26.028 45.455,25.123 44.767,24.518 C44.127,23.915 43.340,23.512 42.455,23.261 C43.538,23.160 44.422,22.807 45.160,22.204 C45.946,21.549 46.389,20.742 46.537,19.837 C46.733,18.880 46.684,17.772 46.046,17.018 C45.455,16.413 44.864,16.111 44.176,15.859 C43.586,15.708 43.045,15.608 42.504,15.507 C41.962,15.456 41.570,15.456 41.274,15.507 L38.471,15.507 ZM65.475,7.703 L35.864,7.703 L34.879,12.436 L64.489,12.436 L65.475,7.703 ZM66.064,4.733 L66.999,0.001 L37.389,0.001 L36.454,4.733 L66.064,4.733 ZM73.787,25.324 L71.819,25.324 L69.852,25.324 L71.819,21.549 L73.245,18.779 L73.787,25.324 ZM74.770,31.618 L79.738,31.618 L76.836,15.507 L71.819,15.507 L71.524,15.507 L62.425,30.762 L61.883,31.618 L62.425,31.618 L66.507,31.618 L68.179,28.698 L71.819,28.698 L74.327,28.698 L74.770,31.618 ZM97.003,15.507 L84.953,15.507 L81.656,31.618 L93.706,31.618 L94.347,28.496 L86.772,28.496 L87.461,25.324 L94.494,25.324 L95.133,22.002 L88.099,22.002 L88.789,18.779 L96.314,18.779 L97.003,15.507 Z"/>
</svg>