<svg width="88" height="88" viewBox="0 0 88 88" fill="none" xmlns="http://www.w3.org/2000/svg">
<path d="M7.3335 77C7.33319 71.3545 8.96199 65.8289 12.0244 61.0862C15.0869 56.3436 19.4528 52.5854 24.5984 50.2627C29.7439 47.94 35.4504 47.1515 41.0329 47.9918C46.6155 48.8321 51.837 51.2655 56.0708 55" stroke="#1EFF9D" strokeWidth="5" strokeLinecap="round" strokeLinejoin="round"/>
<path d="M36.6668 47.6667C46.7921 47.6667 55.0002 39.4586 55.0002 29.3333C55.0002 19.2081 46.7921 11 36.6668 11C26.5416 11 18.3335 19.2081 18.3335 29.3333C18.3335 39.4586 26.5416 47.6667 36.6668 47.6667Z" stroke="#1EFF9D" strokeWidth="5" strokeLinecap="round" strokeLinejoin="round"/>
<path d="M58.6665 69.6667L65.9998 77L80.6665 62.3334" stroke="#1EFF9D" strokeWidth="5" strokeLinecap="round" strokeLinejoin="round"/>
</svg>
