<svg width="84" height="82" viewBox="0 0 84 82" fill="none" xmlns="http://www.w3.org/2000/svg">
<path fill-rule="evenodd" clip-rule="evenodd" d="M83.6829 35.2008C83.4427 35.9114 83.0266 36.3566 82.6619 36.4477C81.9769 36.6195 81.637 35.8835 81.6839 35.8249C82.4718 35.0075 82.6932 33.7899 82.4301 32.7401C81.9398 30.7864 80.1081 29.7888 77.9488 30.3296C75.8338 30.8593 74.6051 32.4531 75.1058 34.4511C75.49 35.9817 76.6289 36.8746 77.9312 36.7497L78.529 36.6L77.9735 34.3834C77.8453 33.8732 77.9436 33.5855 78.3519 33.4827L78.4248 33.4645C78.8481 33.3584 79.0707 33.5666 79.1984 34.0769L79.886 36.818C80.0214 37.3575 79.7519 37.7037 79.2264 37.8352L75.2002 38.8439C75.156 38.855 74.999 38.6617 74.93 38.3851C74.82 37.9478 74.9437 37.5137 75.936 37.2651L76.1112 37.2208C75.0309 36.872 74.1877 35.9206 73.8224 34.4628C73.1387 31.736 74.7601 29.4855 77.5757 28.78C80.4642 28.0564 83.0044 29.5278 83.7207 32.3854C84.0098 33.5373 83.9265 34.5038 83.6829 35.2008ZM78.5518 21.3037L71.8552 26.1567C71.417 26.4743 70.9905 26.4496 70.7254 26.0845L70.6545 25.9868C70.381 25.61 70.42 25.433 70.5464 25.0445L73.3789 16.7345L67.7659 20.802C67.3882 21.076 67.0705 21.0467 66.8054 20.6816L66.7084 20.5475C66.4519 20.1948 66.532 19.8954 66.9096 19.6221L73.6062 14.7691C74.0321 14.46 74.4625 14.4639 74.7451 14.8537L74.8955 15.0607C75.1683 15.4375 75.1169 15.6984 74.9671 16.1592L72.2648 24.0585L77.6948 20.1232C78.0725 19.8499 78.3825 19.8668 78.6468 20.2319L78.753 20.3783C79.0004 20.7187 78.9288 21.0304 78.5518 21.3037ZM63.3888 16.6512C63.1023 17.0189 62.7767 17.0697 62.4205 16.7931L62.2545 16.6636C61.9107 16.3954 61.8801 16.0674 62.1666 15.6997L67.3511 9.04668C67.6376 8.67898 67.9632 8.62757 68.307 8.8957L68.4737 9.02521C68.8299 9.30244 68.8599 9.63044 68.5734 9.99814L63.3888 16.6512ZM62.4661 5.74716C62.3007 6.13438 61.9855 6.26129 61.5564 6.07906L59.1068 5.03584L56.0886 12.1178C55.9056 12.5467 55.5905 12.6736 55.175 12.4972L54.981 12.4145C54.5799 12.2434 54.4666 11.9343 54.6495 11.5054L57.6677 4.42344L55.218 3.38022C54.7889 3.198 54.6482 2.87651 54.813 2.48929L54.8423 2.41965C55.0077 2.03243 55.3307 1.92505 55.7604 2.10792L62.0988 4.80611C62.5273 4.98898 62.6608 5.2903 62.4954 5.67817L62.4661 5.74716ZM48.0376 1.74152L43.1292 1.42849L42.956 4.14425L46.7535 4.3857C47.2491 4.41759 47.4607 4.64146 47.4347 5.0469L47.4321 5.09181C47.4054 5.51157 47.1507 5.72178 46.6702 5.69119L42.8726 5.4491L42.6851 8.38938L47.6834 8.70762C48.164 8.73821 48.3756 8.96273 48.3502 9.36752L48.345 9.44302C48.3176 9.87775 48.0767 10.1036 47.5968 10.073L41.8776 9.70854C41.3827 9.6773 41.0734 9.32587 41.1073 8.80068L41.6159 0.82C41.6491 0.294809 42.0014 -0.028635 42.4969 0.00260311L48.1255 0.36119C48.6054 0.391778 48.8307 0.646889 48.8047 1.05233L48.7988 1.14214C48.7721 1.5619 48.5175 1.77211 48.0376 1.74152ZM36.7842 10.1875C36.4639 10.2734 36.1858 10.2233 35.8576 9.98448L30.9029 6.82552L31.9513 10.7466C32.0718 11.1976 31.9155 11.4878 31.4799 11.6043L31.2617 11.6629C30.8548 11.7716 30.5748 11.5971 30.4549 11.1468L28.2761 2.99886C28.1557 2.54851 28.312 2.25825 28.7189 2.14957L28.9371 2.091C29.3727 1.97516 29.6527 2.14892 29.7732 2.59927L30.7825 6.37517L33.4828 1.39075C33.6971 0.913063 33.9211 0.760127 34.1828 0.690492C34.8223 0.519984 35.1889 1.07511 35.1752 1.14084L32.4898 6.12136L37.4667 9.30505C37.5441 9.36297 37.438 10.0131 36.7842 10.1875ZM26.3995 13.8528C26.0635 14.0806 25.7464 14.0955 25.2281 13.9198L21.1935 12.7139L20.3092 13.3133L22.0823 15.9256C22.3187 16.2737 22.292 16.6369 21.9188 16.89L21.7443 17.0085C21.396 17.2441 21.0489 17.1347 20.7617 16.7117L16.2036 9.99359C15.908 9.55821 15.9874 9.08703 16.3976 8.80849L18.6884 7.2557C20.6549 5.92287 22.2581 6.03481 23.3384 7.6273C24.1569 8.83387 24.0547 10.1023 22.9998 11.1989C22.863 11.3459 22.7055 11.4891 22.5401 11.6193L26.7915 12.8239C26.9048 12.8564 26.9348 13.4896 26.3995 13.8528ZM22.0862 8.56705C21.4533 7.63381 20.526 7.55376 19.3435 8.35554L17.6882 9.47751L19.6131 12.3143L21.3055 11.1663C22.488 10.3652 22.6768 9.43781 22.0862 8.56705ZM18.2215 20.1935C18.0164 20.472 17.6694 20.6647 17.0963 20.5039L14.8075 19.8837L12.4972 23.0179L13.7813 25.0276C14.101 25.5059 14.0378 25.8703 13.8425 26.1365C13.5742 26.4997 13.0487 26.6546 12.9667 26.5381L7.82508 18.4585C7.6421 18.1741 7.6395 17.8734 8.05885 17.3046C8.48666 16.7241 8.76601 16.6493 9.09159 16.7397L18.355 19.2277C18.4781 19.2622 18.4983 19.8186 18.2215 20.1935ZM9.32471 18.2743L11.7151 21.976L13.5703 19.4581L9.32471 18.2743ZM11.7698 30.3075L11.7164 30.5105C11.6051 30.9322 11.3257 31.0455 10.8751 30.9264L3.96694 29.1035L8.10117 32.418C8.43717 32.6776 8.65661 32.9061 8.48731 33.5458C8.31475 34.1999 8.01847 34.2617 7.59391 34.3365L2.41326 35.1611L9.27782 36.9729C9.72843 37.092 9.91531 37.3276 9.80005 37.7643L9.73819 37.9966C9.63075 38.4033 9.35205 38.5166 8.90145 38.3975L0.88759 36.2824C0.379032 36.1483 0.147869 35.7292 0.285915 35.206L0.38945 34.8136C0.543125 34.2324 0.80359 34.1302 1.40266 34.0398L7.00787 33.1397L2.58192 29.5773C2.09094 29.1985 1.93336 28.9707 2.07922 28.4182L2.17494 28.0551C2.31754 27.5169 2.72908 27.2526 3.23829 27.3867L11.2521 29.5018C11.7021 29.6209 11.8851 29.8714 11.7698 30.3075ZM16.9824 42.0569L18.0607 41.5838V49.543C18.0607 50.3337 18.1434 51.0788 18.3088 51.7661L15.5381 48.6455C13.6582 46.5285 14.3894 43.1945 16.9824 42.0569ZM38.7696 49.0165V46.7472C38.7696 45.8055 39.0965 44.8852 39.721 44.1791C40.7068 43.0637 42.1433 42.4031 43.9926 42.4031C46.9867 42.4031 49.1459 44.7388 49.1459 48.0292C49.1459 51.3854 47.0563 53.656 43.9229 53.656C41.1373 53.656 38.7696 51.6815 38.7696 49.0165ZM28.4578 52.5718C27.6354 53.1536 26.6248 53.4913 25.4774 53.4913C22.936 53.4913 21.4728 51.8793 21.4728 49.1479V41.5141C21.4728 40.9089 21.3178 40.5152 21.0508 40.2724L58.8287 23.7026C62.5384 22.0749 66.1588 26.1528 64.1012 29.641L52.3783 49.5117C52.4493 49.0249 52.4877 48.5199 52.4877 47.9967C52.4877 42.9621 49.1459 39.7049 44.6535 39.7049C41.9727 39.7049 40.0583 40.8236 38.7696 42.666C38.7696 42.3367 38.7 41.9092 38.6654 41.7445C38.3868 40.2971 37.4471 39.9353 36.611 39.9353C35.9149 39.9353 35.3575 40.1982 35.3575 40.2971V60.8284C35.3575 62.0128 35.9846 62.3753 36.8897 62.3753H37.2726C38.1432 62.3753 38.8041 62.0128 38.8041 60.8284V53.3924C39.7444 54.9719 41.7643 56.3535 44.55 56.3535C46.3127 56.3535 47.882 55.8615 49.1524 54.979L40.8898 68.9848C39.4514 71.4226 36.0523 71.7519 34.1724 69.6343L22.0328 55.9611C22.753 56.1947 23.5741 56.321 24.502 56.321C27.0787 56.321 28.8895 55.1691 30.0734 53.5571C30.0734 53.9521 30.1424 54.2807 30.2127 54.5769C30.5604 55.7613 31.431 56.0574 32.2665 56.0574C32.9287 56.0574 33.4854 55.7945 33.4854 55.6956V41.5141C33.4854 40.2971 32.8584 39.9353 31.9533 39.9353H31.5697C30.6998 39.9353 30.0734 40.3303 30.0734 41.5141V49.39C30.0734 50.6474 29.4841 51.8448 28.4578 52.5718ZM3.85754 41.8493C4.20331 41.8493 4.48396 42.1298 4.48396 42.4753C4.48396 63.3216 21.4526 80.2813 42.31 80.2813C63.1667 80.2813 80.1361 63.3216 80.1361 42.4753C80.1361 42.1298 80.4161 41.8493 80.7625 41.8493C81.1082 41.8493 81.3889 42.1298 81.3889 42.4753C81.3889 64.0127 63.8583 81.534 42.31 81.534C20.7617 81.534 3.23047 64.0127 3.23047 42.4753C3.23047 42.1298 3.51112 41.8493 3.85754 41.8493Z" fill="#FFF"/>
</svg>
