<svg width="24" height="25" viewBox="0 0 24 25" fill="none" xmlns="http://www.w3.org/2000/svg">
<path d="M23.4242 19.2291L14.2424 3.28359C13.2376 1.57279 10.7639 1.57279 9.75912 3.28359L0.577341 19.2291C0.127866 19.9984 0.127866 20.9503 0.577341 21.7196C1.03853 22.5198 1.89544 23.0091 2.81898 22.9995H21.1825C22.1053 23.0083 22.9613 22.5192 23.4221 21.7196C23.8722 20.9507 23.873 19.9988 23.4242 19.2291ZM21.9679 20.8786C21.8049 21.1566 21.5047 21.3251 21.1825 21.3196H2.81898C2.49678 21.3251 2.19659 21.1566 2.03362 20.8786C1.88595 20.6286 1.88595 20.318 2.03362 20.068L11.2154 4.1225C11.5724 3.5285 12.4334 3.5285 12.7903 4.1225L21.9721 20.068C22.1185 20.3188 22.1169 20.6293 21.9679 20.8786ZM11.1608 14.5999V10.4001C11.1608 9.75352 11.8608 9.34941 12.4207 9.6727C12.6806 9.82275 12.8407 10.1 12.8407 10.4001V14.5999C12.8407 15.2465 12.1407 15.6506 11.5808 15.3273C11.3209 15.1773 11.1608 14.9 11.1608 14.5999ZM13.2607 18.3797C13.2607 19.3496 12.2107 19.9558 11.3708 19.4709C10.5308 18.9859 10.5308 17.7735 11.3708 17.2886C11.5623 17.178 11.7796 17.1198 12.0008 17.1198C12.6966 17.1198 13.2607 17.6839 13.2607 18.3797Z" fill="#A40000"/>
</svg>
