<svg width="179" height="97" viewBox="0 0 179 97" fill="none" xmlns="http://www.w3.org/2000/svg">
<g clip-path="url(#clip0_2102_243)">
<path d="M5.9156 43.4143V30.2317L4.13293 31.0149C-0.155382 32.8985 -1.36611 38.4204 1.74366 41.9273L6.32661 47.0973C6.05426 45.9597 5.91808 44.7254 5.91808 43.4143H5.9156Z" fill="white"/>
<path d="M73.3395 0.612296L10.8594 28.0582C11.3001 28.4597 11.5576 29.1115 11.5576 30.1153V42.7601C11.5576 47.2832 13.9766 49.9549 18.1807 49.9549C20.0773 49.9549 21.751 49.3948 23.1103 48.4307C24.8088 47.2262 25.7818 45.2435 25.7818 43.1616V30.1153C25.7818 28.1524 26.8192 27.5006 28.2577 27.5006H28.8916C30.3895 27.5006 31.4245 28.1003 31.4245 30.1153V53.6056C31.4245 53.7692 30.5034 54.2054 29.4091 54.2054C28.0275 54.2054 26.5865 53.7147 26.0121 51.7518C25.8957 51.2611 25.7818 50.7158 25.7818 50.0615C23.8234 52.7308 20.83 54.6391 16.5689 54.6391C15.0338 54.6391 13.677 54.431 12.4861 54.0443L32.5634 76.692C35.6732 80.199 41.2935 79.6537 43.6729 75.6164L57.3376 52.4185C55.238 53.8808 52.6407 54.6961 49.7266 54.6961C45.1188 54.6961 41.7788 52.4061 40.2239 49.7914V62.1091C40.2239 64.072 39.1296 64.6717 37.691 64.6717H37.0572C35.5593 64.6717 34.5243 64.072 34.5243 62.1091V28.0979C34.5243 27.9343 35.4454 27.4981 36.5967 27.4981C37.9783 27.4981 39.5331 28.0979 39.9937 30.497C40.0506 30.7696 40.167 31.4784 40.167 32.0237C42.2988 28.9727 45.4655 27.1189 49.8999 27.1189C57.3277 27.1189 62.8564 32.5144 62.8564 40.8542C62.8564 41.7217 62.792 42.5569 62.6757 43.3649L82.0647 10.4516C85.4691 4.67441 79.4798 -2.07926 73.3445 0.614774L73.3395 0.612296Z" fill="white"/>
<path d="M41.7368 34.5292C40.7043 35.699 40.1621 37.2233 40.1621 38.7847V42.5419C40.1621 46.956 44.079 50.2275 48.6843 50.2275C53.8664 50.2275 57.3228 46.4677 57.3228 40.9087C57.3228 35.3496 53.7525 31.5898 48.8006 31.5898C45.7429 31.5898 43.366 32.6853 41.7368 34.5317V34.5292Z" fill="white"/>
<path d="M56.0664 54.426C56.0664 46.7479 61.1371 41.6473 68.2356 41.6473C72.3977 41.6473 75.547 43.4664 77.0425 45.6375V32.4028C77.0425 32.2516 77.9487 31.8477 78.9638 31.8477C80.6178 31.8477 82.3261 32.6556 82.3261 36.1403V64.3768C82.3261 66.1959 81.3655 66.7511 79.9765 66.7511H79.4442C78.0552 66.7511 77.0945 66.1959 77.0945 64.3768V62.5081C75.0667 65.4375 72.1303 67.2047 68.0747 67.2047C61.1891 67.2047 56.0664 62.1016 56.0664 54.4235V54.426ZM77.0945 52.5994C77.0945 50.8248 76.3938 49.0999 75.0939 47.8929C73.6505 46.5545 71.6895 45.7887 69.1963 45.7887C64.393 45.7887 61.1916 49.2238 61.1916 54.426C61.1916 59.6282 64.5019 63.0632 69.0898 63.0632C73.3608 63.0632 77.0945 60.0842 77.0945 55.9403V52.5969V52.5994Z" fill="white"/>
<path d="M88.2429 31.5427C90.2162 31.5427 91.3378 32.6531 91.3378 34.4722C91.3378 36.2914 90.2162 37.3521 88.1884 37.3521C86.1607 37.3521 85.0391 36.2418 85.0391 34.4722C85.0391 32.7026 86.2127 31.5427 88.2404 31.5427H88.2429ZM85.4674 44.4255C85.4674 42.6063 86.4801 42.0016 87.8691 42.0016H88.4039C89.7904 42.0016 90.751 42.5568 90.751 44.4255V64.3792C90.751 66.1983 89.7904 66.7535 88.4039 66.7535H87.8691C86.4801 66.7535 85.4674 66.1983 85.4674 64.3792V44.4255Z" fill="white"/>
<path d="M91.979 70.4885C91.979 66.9518 95.5023 64.5775 100.145 63.8216C99.5034 63.316 99.132 62.56 99.132 61.5489C99.132 60.5377 99.7188 59.6306 100.573 58.9217C96.463 57.7098 93.8484 54.6291 93.8484 50.8397C93.8484 45.7366 98.4907 41.6472 104.844 41.6472C107.085 41.6472 109.221 42.2024 110.982 43.112L112.368 40.7872C113.223 39.4737 114.077 38.8665 115.411 38.8665C117.385 38.8665 118.293 40.8864 118.132 40.988L113.755 45.2806C115.141 46.7949 115.996 48.6661 115.996 50.686C115.996 55.789 111.405 59.5265 104.893 59.5265H103.933C103.72 59.8288 103.665 60.0816 103.665 60.384C103.665 61.9504 106.122 62.1015 110.603 63.1623C114.233 64.0719 118.075 65.7894 118.075 69.7797C118.075 74.3771 113.111 77.205 104.626 77.205C96.1411 77.205 91.9766 75.0339 91.9766 70.486L91.979 70.4885ZM112.955 69.9333C112.955 68.0126 110.553 67.3062 107.723 66.6494L105.054 66.0422C100.677 66.295 97.0497 67.7598 97.0497 70.3348C97.0497 72.5059 99.6643 73.7178 104.735 73.7178C109.806 73.7178 112.955 72.3547 112.955 69.9308V69.9333ZM110.873 50.738C110.873 47.5062 108.417 45.231 104.79 45.231C101.162 45.231 98.8646 47.4541 98.8646 50.738C98.8646 54.0219 101.373 56.2451 104.896 56.2451C108.419 56.2451 110.873 54.0219 110.873 50.738Z" fill="white"/>
<path d="M122.055 31.5427C124.029 31.5427 125.15 32.6531 125.15 34.4722C125.15 36.2914 124.029 37.3521 122.001 37.3521C119.973 37.3521 118.852 36.2418 118.852 34.4722C118.852 32.7026 120.025 31.5427 122.053 31.5427H122.055ZM119.28 44.4255C119.28 42.6063 120.293 42.0016 121.682 42.0016H122.216C123.603 42.0016 124.564 42.5568 124.564 44.4255V64.3792C124.564 66.1983 123.603 66.7535 122.216 66.7535H121.682C120.293 66.7535 119.28 66.1983 119.28 64.3792V44.4255Z" fill="white"/>
<path d="M130.699 59.1745V46.3437H128.832C127.178 46.3437 126.537 45.687 126.537 44.475V44.1206C126.537 42.9087 127.178 42.2519 128.832 42.2519H130.699V38.5144C130.699 36.7969 131.608 36.1401 133.049 36.1401H133.581C134.97 36.1401 135.876 36.6457 135.876 38.5144V42.2519H141.695C143.349 42.2519 143.935 42.8591 143.935 44.071V44.4255C143.935 45.6894 143.294 46.3462 141.64 46.3462H135.822V58.6218C135.822 61.6529 136.728 63.1176 139.239 63.1176C140.333 63.1176 141.217 62.8078 141.923 62.3047C142.923 61.5934 144.342 62.2452 144.361 63.4745C144.361 63.4894 144.361 63.5067 144.361 63.5216C144.361 64.3296 143.987 65.088 143.24 65.7447C142.225 66.6023 140.571 67.2095 138.382 67.2095C133.098 67.2095 130.697 64.4312 130.697 59.177L130.699 59.1745Z" fill="white"/>
<path d="M162.64 51.95H163.333V51.4444C163.333 47.7565 161.092 45.7366 156.982 45.7366C153.833 45.7366 151.731 46.9907 150.421 48.6438C149.587 49.6971 148.022 49.9351 147.032 49.0255C146.64 48.6661 146.363 48.1605 146.363 47.4542C146.363 46.5446 146.95 45.4343 148.123 44.4231C149.884 42.9088 152.981 41.6448 157.356 41.6448C164.616 41.6448 168.565 45.1815 168.565 51.3428V66.243C168.565 66.4958 167.604 66.7982 166.643 66.7982C165.202 66.7982 164.029 66.1909 163.6 64.575C163.494 64.1215 163.388 63.5638 163.388 62.9071C161.412 65.5342 158.049 67.1005 154.155 67.1005C148.658 67.1005 145.402 64.3222 145.402 60.1808C145.402 54.5746 151.06 52.1483 162.642 51.9475L162.64 51.95ZM163.336 55.0827L161.895 55.1323C154.422 55.3851 150.58 56.6986 150.58 59.9825C150.58 62.1536 152.394 63.5192 155.437 63.5192C160.028 63.5192 163.336 60.7905 163.336 56.9514V55.0827Z" fill="white"/>
<path d="M171.639 64.3768V32.4028C171.639 32.2516 172.545 31.8477 173.56 31.8477C175.214 31.8477 176.922 32.6556 176.922 36.1403V64.3768C176.922 66.1959 175.962 66.7511 174.575 66.7511H174.04C172.651 66.7511 171.639 66.1959 171.639 64.3768Z" fill="white"/>
<path fill-rule="evenodd" clip-rule="evenodd" d="M134.495 85.9413C134.55 85.6835 134.577 85.4307 134.577 85.1829C134.577 84.4865 134.352 83.8916 133.896 83.3984C133.398 82.8656 132.678 82.5112 131.73 82.3302C131.546 82.3005 131.326 82.2757 131.068 82.2534H123.002L119.857 97.0024H126.441C128.342 97.0024 129.729 96.7967 130.605 96.3878C131.477 95.9764 132.175 95.3939 132.698 94.6306C133.223 93.8722 133.485 93.0295 133.485 92.0977C133.485 90.6205 132.514 89.7035 130.571 89.3466L130.593 89.307C132.821 88.7741 134.124 87.6539 134.495 85.9413ZM129.251 92.5686C129.004 93.7161 128.169 94.2911 126.753 94.2911H124.463L125.205 90.7816H127.372C128.667 90.7816 129.313 91.2153 129.313 92.0778C129.313 92.2241 129.291 92.3901 129.251 92.5686ZM130.264 86.5361C130.128 87.2053 129.766 87.6836 129.189 87.9711C128.929 88.0926 128.432 88.1545 127.704 88.1545H125.763L126.466 84.8706H128.716C129.308 84.8706 129.729 84.9896 129.974 85.2201C130.291 85.5224 130.39 85.9611 130.264 86.5336V86.5361Z" fill="white"/>
<path fill-rule="evenodd" clip-rule="evenodd" d="M93.482 92.2094H97.5698C97.5153 92.4696 97.4881 92.6828 97.4881 92.8513C97.4881 93.8774 98.1789 94.3904 99.5629 94.3904C100.947 94.3904 101.861 93.8575 102.106 92.7918C102.133 92.6629 102.145 92.539 102.145 92.4225C102.145 91.9417 101.806 91.6096 101.128 91.4287L97.7307 90.5315C95.8044 90.0259 94.8438 89.0445 94.8438 87.5896C94.8438 87.3046 94.8784 86.9998 94.9453 86.6751C95.23 85.4285 95.9431 84.4098 97.0795 83.6167C98.367 82.7196 100.043 82.2734 102.103 82.2734C105.547 82.2734 107.27 83.3392 107.27 85.4681C107.27 85.8176 107.216 86.2463 107.107 86.7544H102.977C103.044 86.4942 103.079 86.2736 103.079 86.0927C103.079 85.2351 102.549 84.8064 101.492 84.8064C100.907 84.8064 100.407 84.9452 99.9863 85.2252C99.5654 85.5053 99.3153 85.8572 99.2336 86.286C99.2064 86.4025 99.194 86.514 99.194 86.6181C99.194 87.1509 99.5951 87.5202 100.395 87.7284L102.977 88.41C104.104 88.7099 104.889 89.0073 105.337 89.3072C106.097 89.8004 106.476 90.5141 106.476 91.451C106.476 91.7633 106.436 92.1003 106.354 92.4647C106.03 93.9715 105.154 95.1215 103.73 95.9121C102.428 96.6408 100.808 97.0026 98.8696 97.0026C96.3615 97.0026 94.7076 96.445 93.9054 95.3272C93.5266 94.8068 93.3359 94.1723 93.3359 93.4188C93.3359 93.1066 93.383 92.7051 93.4795 92.2119L93.482 92.2094Z" fill="white"/>
<path fill-rule="evenodd" clip-rule="evenodd" d="M106.904 97L110.064 82.3005H121.255L120.656 85.116H113.552L112.891 88.1793H119.581L118.962 90.9973H112.272L111.611 94.1424H118.88L118.261 97H106.904Z" fill="white"/>
<path fill-rule="evenodd" clip-rule="evenodd" d="M164.65 97L167.81 82.3005H179.001L178.402 85.116H171.298L170.637 88.1793H177.327L176.708 90.9973H170.018L169.357 94.1424H176.626L176.007 97H164.65Z" fill="white"/>
<path fill-rule="evenodd" clip-rule="evenodd" d="M148.381 83.3564C147.98 82.8384 147.314 82.5138 146.376 82.3774C145.994 82.3229 145.207 82.2957 144.021 82.2957H137.126L133.969 97.0001H138.118L139.359 91.2576H141.092C141.753 91.2576 142.199 91.3493 142.424 91.5327C142.652 91.7136 142.766 92.0309 142.766 92.4794C142.766 92.6975 142.736 93.099 142.682 93.679C142.506 95.3494 142.427 96.4598 142.456 97.0001H146.935C146.866 96.4003 146.896 95.1933 147.017 93.3741C147.061 92.7521 147.079 92.3109 147.079 92.0532C147.079 91.2799 146.913 90.7272 146.581 90.4025C146.2 90.0085 145.467 89.7953 144.392 89.7681L144.415 89.6863C145.363 89.55 146.178 89.2996 146.849 88.9304C147.881 88.3752 148.537 87.4656 148.812 86.2016C148.894 85.8076 148.933 85.4358 148.933 85.0814C148.933 84.3899 148.75 83.81 148.379 83.3515L148.381 83.3564ZM144.662 86.8163C144.487 87.7011 144.004 88.2562 143.216 88.4867C142.944 88.5685 142.367 88.6082 141.483 88.6082H139.936L140.701 85.0046H142.248C143.016 85.0046 143.568 85.0566 143.9 85.1657C144.447 85.354 144.724 85.7357 144.724 86.3082C144.724 86.4544 144.707 86.6254 144.662 86.8163Z" fill="white"/>
<path fill-rule="evenodd" clip-rule="evenodd" d="M161.016 82.3699H155.977L146.938 96.9999H151.065L152.716 94.063H158.686L159.075 96.9999H163.742L161.016 82.3699ZM154.264 91.3665L157.651 85.225H157.713L158.312 91.3665H154.261H154.264Z" fill="white"/>
</g>
<defs>
<clipPath id="clip0_2102_243">
<rect width="179" height="97" fill="white"/>
</clipPath>
</defs>
</svg>
